<?xml version="1.0" encoding="utf-8"?>
<!-- Generator: Adobe Illustrator 15.0.0, SVG Export Plug-In . SVG Version: 6.00 Build 0)  -->
<!DOCTYPE svg PUBLIC "-//W3C//DTD SVG 1.1//EN" "http://www.w3.org/Graphics/SVG/1.1/DTD/svg11.dtd">
<svg version="1.1" id="Layer_1" xmlns="http://www.w3.org/2000/svg" xmlns:xlink="http://www.w3.org/1999/xlink" x="0px" y="0px"
	 width="200px" height="250px" viewBox="0 0 200 250" enable-background="new 0 0 200 250" xml:space="preserve">
<g id="back">
	<path fill="#4167B1" d="M4.156,0h191.688C198.139,0,200,1.729,200,3.863v242.272c0,2.134-1.861,3.864-4.156,3.864H4.156
		C1.861,250,0,248.27,0,246.136V3.863C0,1.729,1.861,0,4.156,0z"/>
	<path fill="#4167B1" stroke="#FFFFFF" stroke-width="1.3132" stroke-linejoin="round" d="M12.161,6.255h175.688
		c2.297,0,4.156,1.729,4.156,3.863v229.772c0,2.135-1.859,3.863-4.156,3.863H12.161c-2.295,0-4.156-1.729-4.156-3.863V10.119
		C8.005,7.984,9.866,6.255,12.161,6.255z"/>
	
		<rect x="22.139" y="17.831" fill="#4167B1" stroke="#FFFFFF" stroke-width="1.2521" stroke-linejoin="round" width="155.738" height="214.343"/>
	
		<rect x="28.368" y="23.188" fill="#4167B1" stroke="#FFFFFF" stroke-width="1.3393" stroke-linejoin="round" width="143.278" height="203.626"/>
	<g id="back_c1">
		<g id="back_c2">
			<g transform="translate(-120.572,-156.034)">
			</g>
			<g transform="translate(-113.479,-156.034)">
			</g>
			<g transform="translate(-106.387,-156.034)">
			</g>
		</g>
		<g id="back_c3">
			<g transform="translate(-113.4792,-163.1263)">
			</g>
			<g transform="translate(-106.3868,-170.2188)">
			</g>
			<g transform="translate(-106.3868,-163.1263)">
			</g>
		</g>
		<g id="back_c4">
			<g id="back_c5">
				<g transform="translate(-99.2942,-177.311)">
				</g>
				<g transform="translate(-92.2019,-177.311)">
				</g>
				<g transform="translate(-85.1094,-177.311)">
				</g>
				<g transform="translate(-78.017,-177.311)">
				</g>
			</g>
			<g transform="translate(0,7.0926)">
			</g>
			<g transform="translate(1.4161e-4,14.185)">
			</g>
			<g transform="translate(0,21.2775)">
			</g>
			<g transform="translate(1.4161e-4,28.3699)">
			</g>
		</g>
		<g transform="translate(0,35.4623)">
		</g>
		<g transform="translate(1.4161e-4,42.5548)">
		</g>
		<g transform="translate(0,49.6472)">
		</g>
		<g transform="translate(-21.2773,56.7397)">
		</g>
		<g transform="matrix(-1,0,0,-1,787.641,1618.28)">
		</g>
		<g transform="translate(1.477e-4,7.0926)">
		</g>
		<g transform="translate(0,14.185)">
		</g>
		<g transform="translate(1.477e-4,21.2775)">
		</g>
		<g transform="translate(0,28.3699)">
		</g>
	</g>
	<rect x="35.87" y="122.431" fill="#4167B1" width="37.187" height="7.198"/>
	<g transform="matrix(1,0,0,-1,0,1717.575)">
	</g>
	<g transform="matrix(-1,0,0,1,837.289,0)">
	</g>
	<rect x="128.574" y="121.777" fill="#4167B1" width="37.188" height="7.199"/>
	<g transform="matrix(-1,0,0,-1,837.289,1717.575)">
	</g>
	<g transform="matrix(-1,0,0, 1,836.872, 0)">
	</g>
	<g transform="matrix( 1,0,0,-1, 0, 1716.7)">
	</g>
	<g transform="matrix(-1,0,0, -1,836.872,1716.7)">
	</g>
	<g transform="matrix(-1,0,0, 1, 838.164, 0)">
	</g>
	<g transform="matrix( 1,0,0,-1, 0, 1717.175)">
	</g>
	<g transform="matrix(-1,0,0,-1, 838.164,1717.175)">
	</g>
	<g transform="matrix(0,-1,1,0,-401.461,1315.16)">
	</g>
	<g transform="matrix(-1,0,0,-1,836.962,1716.621)">
	</g>
	<g transform="matrix(0,1,-1,0,1238.423,401.461)">
	</g>
	<g id="g_lace">
		<g transform="translate(0,27.18114)">
		</g>
		<g transform="translate(0,54.37214)">
		</g>
		<g transform="translate(0,81.56310)">
		</g>
		<g transform="translate(0,108.7443)">
		</g>
		<g transform="translate(0,135.9353)">
		</g>
		<g transform="translate(0,163.1262)">
		</g>
	</g>
	<g transform="translate(129.5877,-0.313128)">
	</g>
	<g id="g_lace2" transform="translate(-145.1693,-59.66309)">
		<g transform="matrix(0,-1,1,0,-254.1121,1167.993)">
		</g>
		<g transform="matrix(0,-1,1,0,-226.9211,1167.993)">
		</g>
		<g transform="matrix(0,-1,1,0,-199.7301,1167.993)">
		</g>
		<g transform="matrix(0,-1,1,0,-172.5489,1167.993)">
		</g>
	</g>
	<g transform="translate(0,207.189)">
	</g>
</g>
</svg>
