<?xml version="1.0" encoding="utf-8"?>
<!-- Generator: Adobe Illustrator 15.0.0, SVG Export Plug-In . SVG Version: 6.00 Build 0)  -->
<!DOCTYPE svg PUBLIC "-//W3C//DTD SVG 1.1//EN" "http://www.w3.org/Graphics/SVG/1.1/DTD/svg11.dtd">
<svg version="1.1"
	 id="svg2" inkscape:output_extension="org.inkscape.output.svg.inkscape" xmlns:dc="http://purl.org/dc/elements/1.1/" xmlns:cc="http://web.resource.org/cc/" xmlns:inkscape="http://www.inkscape.org/namespaces/inkscape" xmlns:rdf="http://www.w3.org/1999/02/22-rdf-syntax-ns#" xmlns:svg="http://www.w3.org/2000/svg" xmlns:sodipodi="http://sodipodi.sourceforge.net/DTD/sodipodi-0.dtd" sodipodi:version="0.32" inkscape:version="0.45" sodipodi:docbase="/home/cburnett/wikipedia/images/playing cards" sodipodi:modified="true" sodipodi:docname="Playing card heart K.svg"
	 xmlns="http://www.w3.org/2000/svg" xmlns:xlink="http://www.w3.org/1999/xlink" x="0px" y="0px" width="200px" height="250px"
	 viewBox="0 0 200 250" enable-background="new 0 0 200 250" xml:space="preserve">
<sodipodi:namedview  height="250px" width="200px" id="base" gridspacingx="1px" objecttolerance="10" inkscape:cy="116.29231" inkscape:zoom="2" bordercolor="#666666" borderopacity="1.0" pagecolor="#ffffff" gridspacingy="1px" gridtolerance="10000" guidetolerance="10" showgrid="true" inkscape:cx="135.79072" inkscape:window-y="31" inkscape:window-x="0" inkscape:window-height="965" inkscape:window-width="977" inkscape:grid-points="true" inkscape:current-layer="layer1" inkscape:document-units="px" inkscape:pageshadow="2" inkscape:pageopacity="0.0" inkscape:guide-bbox="true" showguides="true">
	</sodipodi:namedview>
<path id="path3229" sodipodi:nodetypes="ccccccccc" fill="#FFFFFF" stroke="#000000" stroke-width="2" d="M199,10c0-5-4-9-9-9H10
	c-5,0-9,4-9,9v230c0,5,4,9,9,9h180c5,0,9-4,9-9V10z"/>
<path id="text1386" d="M28.809,15.542h4.321v13.264c0,1.831-0.568,3.198-1.706,4.104c-1.129,0.905-2.842,1.357-5.14,1.357h-0.875
	v-2.863h0.674c0.898,0,1.574-0.22,2.031-0.659c0.463-0.439,0.695-1.086,0.695-1.938V15.542 M30.964,38.173
	c-1.316,0-2.338,0.427-3.064,1.279s-1.088,2.053-1.088,3.602c0,1.542,0.363,2.738,1.088,3.591c0.726,0.854,1.748,1.28,3.064,1.28
	c1.324,0,2.349-0.426,3.075-1.28c0.726-0.853,1.088-2.049,1.088-3.591c0-1.548-0.363-2.749-1.088-3.602
	C33.313,38.6,32.288,38.173,30.964,38.173 M30.964,35.428c2.694,0,4.803,0.676,6.33,2.027s2.29,3.218,2.29,5.599
	c0,2.374-0.763,4.238-2.29,5.589s-3.636,2.027-6.33,2.027c-2.686,0-4.796-0.676-6.33-2.027c-1.526-1.351-2.289-3.215-2.289-5.589
	c0-2.381,0.763-4.248,2.289-5.599C26.168,36.104,28.278,35.428,30.964,35.428 M24.163,55.846h4.321v5.363l6.228-5.363h5.017
	l-8.068,6.957l8.899,7.734h-5.41l-6.666-5.786v5.786h-4.321V55.846 M25.218,75.998h11.66v2.863h-7.339v2.735h6.901v2.863h-6.901
	v3.365h7.586v2.863H25.218V75.998 M30.37,102.663c0.905,0,1.552-0.147,1.941-0.442c0.396-0.296,0.595-0.781,0.595-1.457
	c0-0.669-0.199-1.147-0.595-1.437c-0.389-0.288-1.036-0.433-1.941-0.433h-1.818v3.769H30.37 M28.551,105.28v5.56H24.23V96.149h6.599
	c2.207,0,3.823,0.325,4.848,0.974c1.033,0.649,1.548,1.677,1.548,3.08c0,0.971-0.269,1.768-0.808,2.391
	c-0.531,0.623-1.335,1.083-2.413,1.378c0.591,0.118,1.118,0.388,1.582,0.807c0.472,0.413,0.946,1.044,1.425,1.89l2.345,4.172h-4.601
	l-2.042-3.65c-0.412-0.734-0.831-1.236-1.257-1.506c-0.418-0.27-0.98-0.403-1.683-0.403h-1.222"/>
<path id="text1408" d="M172.118,233.813h-4.319v-13.265c0-1.83,0.568-3.198,1.706-4.103c1.13-0.905,2.843-1.358,5.14-1.358h0.875
	v2.863h-0.672c-0.898,0-1.576,0.22-2.031,0.659c-0.465,0.439-0.697,1.086-0.697,1.938L172.118,233.813 M169.965,211.182
	c1.316,0,2.338-0.428,3.064-1.279c0.725-0.854,1.087-2.055,1.087-3.602c0-1.543-0.362-2.738-1.087-3.592
	c-0.728-0.854-1.748-1.277-3.064-1.277c-1.324,0-2.349,0.426-3.074,1.277c-0.727,0.854-1.09,2.049-1.09,3.592
	c0,1.547,0.363,2.748,1.09,3.602C167.616,210.754,168.641,211.182,169.965,211.182 M169.965,213.927
	c-2.693,0-4.803-0.677-6.33-2.028c-1.525-1.351-2.287-3.215-2.287-5.598c0-2.375,0.762-4.236,2.287-5.589
	c1.527-1.351,3.637-2.026,6.33-2.026c2.686,0,4.795,0.676,6.33,2.026c1.525,1.353,2.289,3.214,2.289,5.589
	c0,2.383-0.764,4.247-2.289,5.598C174.76,213.25,172.648,213.927,169.965,213.927 M176.766,193.51h-4.32v-5.363l-6.229,5.363h-5.016
	l8.066-6.958l-8.898-7.733h5.408l6.666,5.787v-5.787h4.322V193.51 M175.71,173.355h-11.659v-2.862h7.34v-2.734h-6.901v-2.864h6.901
	v-3.365h-7.588v-2.862h11.907V173.355 M170.559,146.691c-0.904,0-1.551,0.146-1.94,0.442c-0.396,0.296-0.593,0.779-0.593,1.455
	c0,0.669,0.195,1.147,0.593,1.437c0.391,0.289,1.036,0.436,1.94,0.436h1.818v-3.77H170.559 M172.377,144.074v-5.561h4.321v14.69
	H170.1c-2.207,0-3.822-0.324-4.85-0.976c-1.031-0.647-1.548-1.676-1.548-3.08c0-0.969,0.271-1.767,0.81-2.39
	c0.53-0.624,1.334-1.082,2.411-1.378c-0.591-0.117-1.118-0.387-1.583-0.808c-0.471-0.413-0.945-1.042-1.425-1.89l-2.345-4.172h4.602
	l2.042,3.65c0.411,0.734,0.83,1.236,1.259,1.506c0.418,0.27,0.979,0.402,1.682,0.402h1.223"/>
<g id="g2398">
	<path id="path4190" sodipodi:nodetypes="cccccccccccccccccccccccc" d="M91.229,58.719c-7.021,0.649-9.615,7.8-14.971,10.086
		c0.209,3.541-7.642,5.646-9.262,9.755c-9.412,0.379-4.875,13.916,2.922,9.259c2.261-6.744,11.246-7.473,7.418,1.57
		c-4.064,13.735-6.357,30.323,4.248,42.614c-4.803-0.235-28.223-1.426-16.559,3.452c6.357,3.557,26.426,2.01,12.746,8.802
		c-5.489,3.515-20.651,16.318-6.594,10.979c-0.621,7.539-0.099,16.322-0.27,24.306c15.575,6.367,32.47,5.747,48.825,4.547
		c4.065-2.879,17.684-0.987,15.377-9.053c-0.409-8.442,1.408-19.115-2.295-26.124c16.271,1.992,0.932-4.738-6.433-8.079
		c-11.028-3.526,7.763-8.935,10.431-14.558c7.688-7.465-18.187,5.318-13.78-0.909c6.599-11.334,0.372-23.754,0.989-35.564
		c0.522-3.354-5.627-18.683,3.183-12.422c-1.985,8.701,14.092,5.738,9.028-1.467c-8.024,0.129-11.535-12.859-21.041-11.533
		c-6.941,3.797-8.231,9.558-11.373-0.414C100.832,60.471,96.183,57.986,91.229,58.719z M91.094,70.5
		C99.576,80.576,78.637,67.572,91.094,70.5z"/>
	
		<linearGradient id="path5463_1_" gradientUnits="userSpaceOnUse" x1="3347.2773" y1="4581.9844" x2="3557.7546" y2="4406.9805" gradientTransform="matrix(0.1448 0 0 0.1449 -392.7941 -490.6012)">
		<stop  offset="0" style="stop-color:#C10000"/>
		<stop  offset="1" style="stop-color:#FF433E"/>
	</linearGradient>
	<path id="path5463" sodipodi:nodetypes="ccccccc" fill="url(#path5463_1_)" d="M92.092,141.121
		c-10.142,0-18.308,7.508-18.308,16.832v19.748c13.495,6.148,42.479,6.472,58.438,0v-19.748c0-9.324-8.166-16.832-18.309-16.832
		H92.092z"/>
	
		<linearGradient id="path1427_1_" gradientUnits="userSpaceOnUse" x1="610.9355" y1="706.8936" x2="618.4997" y2="704.5995" gradientTransform="matrix(0.9999 0 0 1 -518.5651 -543.4199)">
		<stop  offset="0" style="stop-color:#008200"/>
		<stop  offset="1" style="stop-color:#00D000"/>
	</linearGradient>
	<path id="path1427" sodipodi:nodetypes="cccccccccc" fill="url(#path1427_1_)" d="M96.767,141.061l-9.185,12.994l6.59,9.982
		l-8.324,11.99l3.274,5.552c3.663,0.526,7.136,0.762,10.607,0.705l4.044-5.548l-7.7-12.762l6.929-11.16L96.767,141.061z"/>
	
		<linearGradient id="path2189_1_" gradientUnits="userSpaceOnUse" x1="612.1123" y1="705.5186" x2="615.9844" y2="704.9655" gradientTransform="matrix(0.9999 0 0 1 -518.5651 -543.4199)">
		<stop  offset="0" style="stop-color:#F0EB00"/>
		<stop  offset="1" style="stop-color:#FFFF00"/>
	</linearGradient>
	<path id="path2189" sodipodi:nodetypes="cccccccccc" fill="url(#path2189_1_)" d="M96.767,141.061l-4.67,13.578l2.646,9.516
		l-5.653,11.992l2.448,5.666c2.265,0.293,4.274,0.354,5.457,0.354l2.454-5.313l-4.203-12.761l2.86-9.936L96.767,141.061z"/>
	
		<linearGradient id="path2493_1_" gradientUnits="userSpaceOnUse" x1="588.1719" y1="688.3887" x2="648.753" y2="688.3887" gradientTransform="matrix(0.9999 0 0 1 -518.8737 -544.6465)">
		<stop  offset="0" style="stop-color:#008200"/>
		<stop  offset="1" style="stop-color:#00D000"/>
	</linearGradient>
	<path id="path2493" sodipodi:nodetypes="cccccccccccc" fill="url(#path2493_1_)" d="M86.528,134.32l-18.645-0.346l19.21,5.367
		l-17.138,13.506l27.12-11.601l20.526,18.872c0,0-11.677-17.487-10.547-16.449c1.131,1.039,25.989,2.598,25.989,2.598l-15.065-7.271
		c0,0,15.065-12.293,14.313-11.602c-0.754,0.692-27.308,7.791-27.308,7.791L86.528,134.32z"/>
	
		<linearGradient id="path5459_1_" gradientUnits="userSpaceOnUse" x1="2673.5918" y1="4369.8057" x2="2845.949" y2="4126.3247" gradientTransform="matrix(0.1868 0 0 0.1449 -415.7646 -503.901)">
		<stop  offset="0" style="stop-color:#FFD8C1"/>
		<stop  offset="1" style="stop-color:#FFEDED"/>
	</linearGradient>
	<path id="path5459" fill="url(#path5459_1_)" d="M124.279,111.393c0,15.099-10.883,27.351-24.291,27.351
		s-24.291-12.252-24.291-27.351c0-15.096,10.883-27.349,24.291-27.349S124.279,96.296,124.279,111.393z"/>
	<g id="g5467" transform="matrix(0.144842,0.000000,0.000000,9.790296e-2,18.01381,61.17309)">
		<path id="path5469" fill="#FFFFFF" d="M560.611,515.645c0,15.7-13.532,28.448-30.212,28.448s-30.219-12.748-30.219-28.448
			c0-15.7,13.538-28.438,30.219-28.438S560.611,499.944,560.611,515.645z"/>
		<path id="path5471" fill="#1E2ECF" d="M534.714,516.303c0,13.147-7.74,23.82-17.274,23.82c-9.527,0-17.26-10.673-17.26-23.82
			c0-13.137,7.733-23.8,17.26-23.8C526.974,492.503,534.714,503.166,534.714,516.303z"/>
		<path id="path5473" d="M521.762,518.298c0,10.583-4.834,19.172-10.794,19.172s-10.788-8.588-10.788-19.172
			c0-10.593,4.827-19.182,10.788-19.182S521.762,507.705,521.762,518.298z"/>
	</g>
	<g id="g5475" transform="matrix(0.144842,0.000000,0.000000,9.790296e-2,7.926368,60.83217)">
		<path id="path5477" fill="#FFFFFF" d="M530.046,514.519c0,15.7-13.532,28.448-30.212,28.448c-16.68,0-30.212-12.748-30.212-28.448
			c0-15.7,13.532-28.428,30.212-28.428C516.514,486.09,530.046,498.818,530.046,514.519z"/>
		<path id="path5479" fill="#1E2ECF" d="M504.148,515.177c0,13.147-7.733,23.82-17.267,23.82c-9.534,0-17.26-10.673-17.26-23.82
			c0-13.137,7.727-23.8,17.26-23.8C496.415,491.377,504.148,502.04,504.148,515.177z"/>
		<path id="path5481" d="M491.197,517.172c0,10.583-4.834,19.172-10.788,19.172c-5.96,0-10.788-8.588-10.788-19.172
			c0-10.593,4.827-19.182,10.788-19.182C486.362,497.99,491.197,506.579,491.197,517.172z"/>
	</g>
	
		<linearGradient id="path5483_1_" gradientUnits="userSpaceOnUse" x1="3318.4385" y1="4283.1123" x2="3348.9277" y2="4247.2505" gradientTransform="matrix(0.1448 0 0 0.1449 -392.9328 -490.5675)">
		<stop  offset="0" style="stop-color:#C10000"/>
		<stop  offset="1" style="stop-color:#FF433E"/>
	</linearGradient>
	<path id="path5483" sodipodi:nodetypes="ccc" fill="url(#path5483_1_)" d="M83.079,125.736c1.791,8.039,10.651,5.748,17.019-0.805
		C93.109,125.076,88.338,125.52,83.079,125.736z"/>
	<path id="path5485" sodipodi:nodetypes="ccccc" fill="#700000" d="M112.566,162.302l1.817,0.163l1.974,19.196l-4.985,0.331
		L112.566,162.302z"/>
	<path id="path5487" sodipodi:nodetypes="ccccccc" d="M86.42,113.835c-1.141,1.702-6.231,2.89-5.996,4.175
		c0.237,1.287,5.152,2.285,6.29,3.025l0.476-0.631c-0.999-0.652-5.048-1.287-5.242-2.345c-0.194-1.058,4.559-2.445,5.624-4.037
		L86.42,113.835z"/>
	
		<linearGradient id="path5608_1_" gradientUnits="userSpaceOnUse" x1="602.7979" y1="634.5488" x2="631.8043" y2="623.0747" gradientTransform="matrix(0.9999 0 0 1 -518.8737 -544.6465)">
		<stop  offset="0" style="stop-color:#C10000"/>
		<stop  offset="1" style="stop-color:#FF433E"/>
	</linearGradient>
	<path id="path5608" sodipodi:nodetypes="ccccccccccccc" fill="url(#path5608_1_)" d="M91.992,61.281
		c-4.148,0.413-8.145,3.456-10.43,9.011c17.25-11.11,14.028,11.492,14.028,11.492c-0.218-0.096-0.714-0.085-0.765-0.248
		c-0.545-1.754-16.551-20.877-27.245,1.736c14.432-10.095,14.468-0.441,12.588,6.697c-0.811,4.302-2.292,9.59-2.292,9.59
		c14.987-2.925,29.371-1.387,44.24,1.033c0,0,0.063-5.47-0.194-6.991c1.092-8.521-10.333-24.699,9.282-16.387
		c-21.095-26.439-24.103,5.573-24.375,4.57c-0.003-0.011-0.083,0.011-0.091,0C106.104,67.178,98.845,60.601,91.992,61.281z"/>
	
		<linearGradient id="path2485_1_" gradientUnits="userSpaceOnUse" x1="588.916" y1="626.2959" x2="591.8297" y2="624.0854" gradientTransform="matrix(0.9999 0 0 1 -509.2546 -553.9072)">
		<stop  offset="0" style="stop-color:#F0EB00"/>
		<stop  offset="1" style="stop-color:#FFFF00"/>
	</linearGradient>
	<path id="path2485" fill="url(#path2485_1_)" d="M83.421,71.489c0,1.285-1.18,2.327-2.634,2.327s-2.635-1.042-2.635-2.327
		c0-1.284,1.181-2.326,2.635-2.326S83.421,70.205,83.421,71.489z"/>
	<path id="path7129" sodipodi:nodetypes="ccc" fill="#FFFFFF" d="M84.628,126.232c1.792,6.228,8.022,2.93,13.148-0.604
		C90.787,125.773,89.886,126.016,84.628,126.232z"/>
	
		<linearGradient id="path2193_1_" gradientUnits="userSpaceOnUse" x1="584.6943" y1="629.2842" x2="587.6084" y2="627.0736" gradientTransform="matrix(0.9999 0 0 1 -518.8737 -544.6465)">
		<stop  offset="0" style="stop-color:#F0EB00"/>
		<stop  offset="1" style="stop-color:#FFFF00"/>
	</linearGradient>
	<path id="path2193" fill="url(#path2193_1_)" d="M69.58,83.74c0,1.284-1.18,2.327-2.634,2.327c-1.454,0-2.634-1.042-2.634-2.327
		c0-1.285,1.18-2.327,2.634-2.327C68.4,81.413,69.58,82.455,69.58,83.74z"/>
	
		<linearGradient id="path2489_1_" gradientUnits="userSpaceOnUse" x1="604.4482" y1="628.0332" x2="607.3629" y2="625.8221" gradientTransform="matrix(0.9999 0 0 1 -473.864 -548.5225)">
		<stop  offset="0" style="stop-color:#F0EB00"/>
		<stop  offset="1" style="stop-color:#FFFF00"/>
	</linearGradient>
	<path id="path2489" fill="url(#path2489_1_)" d="M134.343,78.611c0,1.284-1.18,2.327-2.634,2.327c-1.455,0-2.635-1.042-2.635-2.327
		c0-1.285,1.18-2.326,2.635-2.326C133.163,76.285,134.343,77.327,134.343,78.611z"/>
	<path id="path3263" sodipodi:nodetypes="ccccc" d="M116.677,117.135c8.367,1.666,7.521-11.729-0.362-6.887l0.664,0.104
		c5.528-2.893,6.965,7.001-1.522,6.909L116.677,117.135z"/>
	<path id="path3265" sodipodi:nodetypes="ccccc" d="M117.311,115.756c4.774,0.951,4.291-6.691-0.205-3.93l0.242-0.002
		c3.153-1.65,4.109,4.057-0.732,4.004L117.311,115.756z"/>
	
		<linearGradient id="path3267_1_" gradientUnits="userSpaceOnUse" x1="608.3164" y1="645.2773" x2="628.7662" y2="641.973" gradientTransform="matrix(0.9999 0 0 1 -518.8737 -544.6465)">
		<stop  offset="0" style="stop-color:#F0EB00"/>
		<stop  offset="1" style="stop-color:#FFFF00"/>
	</linearGradient>
	<path id="path3267" sodipodi:nodetypes="ccccc" fill="url(#path3267_1_)" d="M77.74,100.216l0.93-3.323
		c14.908-1.425,30.436-1.235,43.176,1.139c0.412,0.855,0.412,2.754,0.412,2.754C107.625,98.602,92.889,98.506,77.74,100.216z"/>
	
		<linearGradient id="path4065_1_" gradientUnits="userSpaceOnUse" x1="770.0391" y1="430.8691" x2="703.892" y2="485.854" gradientTransform="matrix(0.7293 0 0 1.3711 -411.7292 -540.9959)">
		<stop  offset="0" style="stop-color:#FFFFFF"/>
		<stop  offset="1" style="stop-color:#FFFFFF;stop-opacity:0"/>
	</linearGradient>
	<path id="path4065" fill="url(#path4065_1_)" d="M91.987,61.289c-3.95,0.393-7.697,3.252-10.026,8.309
		c-0.376-0.184-0.709-0.414-1.168-0.414c-1.455,0-2.653,1.031-2.653,2.315c0,0.483,0.298,0.868,0.585,1.24
		c-3.521,0.592-7.123,3.161-10.341,9.218c-0.43-0.268-0.874-0.538-1.439-0.538c-1.454,0-2.653,1.031-2.653,2.315
		c0,1.285,1.199,2.356,2.653,2.356c1.454,0,2.607-1.072,2.607-2.356c0-0.513-0.31-0.896-0.629-1.281
		c12.95-8.412,13.052,0.639,11.24,7.523c-0.812,4.302-2.294,9.59-2.294,9.59c0.016-0.003,0.031,0.003,0.045,0l-0.18,0.661
		c0.045-0.005,0.09,0.006,0.135,0c-1.367,3.422-2.158,7.168-2.158,11.161c0,9.636,4.459,18.069,11.15,22.941h-0.359l-18.613-0.331
		l19.198,5.333l-17.13,13.517l6.114-2.604c-1.335,2.34-2.292,4.895-2.292,7.73v19.717c3.943,1.798,9.362,2.941,15.24,3.721
		l0.09,0.165c0.823,0.118,1.577,0.077,2.383,0.165l0.045,0.083c2.265,0.295,4.258,0.329,5.44,0.331l0.045-0.043
		c0.886,0.023,1.815,0.183,2.698,0.166c3.932,0.1,7.731-0.178,11.643-0.495v0.206l4.99-0.33l-0.045-0.248
		c5.883-0.768,11.449-1.909,15.916-3.721v-19.717c0-4.804-2.223-9.093-5.709-12.154c2.504,0.176,6.52,0.455,6.52,0.455L117.975,139
		c0,0,15.049-12.309,14.297-11.615c-0.459,0.424-9.088,2.838-16.86,4.961c5.368-5.018,8.858-12.495,8.858-20.958
		c0-3.958-0.769-7.681-2.113-11.078c-0.004-0.104-0.037-0.321-0.045-0.496c0.008-0.985,0.051-4.85-0.18-6.2
		c1.065-8.335-9.66-23.885,8.227-16.782c-0.629,0.425-1.079,1.024-1.079,1.777c0,1.285,1.153,2.356,2.608,2.356
		c1.453,0,2.651-1.071,2.651-2.356c0-1.284-1.198-2.315-2.651-2.315c-0.41,0-0.69,0.226-1.035,0.372
		c-20.563-25.121-23.559,6.119-23.827,5.125c-0.005-0.011-0.085,0.011-0.091,0C106.098,67.186,98.84,60.608,91.987,61.289z
		 M91.043,67.406c6.371,1.669,4.541,14.385,4.541,14.385c-0.218-0.095-0.713-0.084-0.764-0.248c-0.309-0.99-5.58-7.335-12.006-8.763
		c0.301-0.378,0.585-0.785,0.585-1.281c0-0.674-0.334-1.27-0.854-1.695C86.266,67.612,89.109,66.9,91.043,67.406z"/>
</g>
</svg>
