<?xml version="1.0" encoding="utf-8"?>
<!-- Generator: Adobe Illustrator 15.0.0, SVG Export Plug-In . SVG Version: 6.00 Build 0)  -->
<!DOCTYPE svg PUBLIC "-//W3C//DTD SVG 1.1//EN" "http://www.w3.org/Graphics/SVG/1.1/DTD/svg11.dtd">
<svg version="1.1"
	 id="svg2" inkscape:output_extension="org.inkscape.output.svg.inkscape" xmlns:dc="http://purl.org/dc/elements/1.1/" xmlns:cc="http://web.resource.org/cc/" xmlns:inkscape="http://www.inkscape.org/namespaces/inkscape" xmlns:rdf="http://www.w3.org/1999/02/22-rdf-syntax-ns#" xmlns:svg="http://www.w3.org/2000/svg" xmlns:sodipodi="http://sodipodi.sourceforge.net/DTD/sodipodi-0.dtd" sodipodi:version="0.32" inkscape:version="0.45" sodipodi:docbase="/home/cburnett/wikipedia/images/playing cards" sodipodi:modified="true" sodipodi:docname="Playing card heart K.svg"
	 xmlns="http://www.w3.org/2000/svg" xmlns:xlink="http://www.w3.org/1999/xlink" x="0px" y="0px" width="200px" height="250px"
	 viewBox="0 0 200 250" enable-background="new 0 0 200 250" xml:space="preserve">
<sodipodi:namedview  height="250px" width="200px" id="base" gridspacingx="1px" objecttolerance="10" inkscape:cy="116.29231" inkscape:zoom="2" bordercolor="#666666" borderopacity="1.0" pagecolor="#ffffff" gridspacingy="1px" gridtolerance="10000" guidetolerance="10" showgrid="true" inkscape:cx="135.79072" inkscape:window-y="31" inkscape:window-x="0" inkscape:window-height="965" inkscape:window-width="977" inkscape:grid-points="true" inkscape:current-layer="layer1" inkscape:document-units="px" inkscape:pageshadow="2" inkscape:pageopacity="0.0" inkscape:guide-bbox="true" showguides="true">
	</sodipodi:namedview>
<path id="path3229" sodipodi:nodetypes="ccccccccc" fill="#FFFFFF" stroke="#000000" stroke-width="2" d="M199,10c0-5-4-9-9-9H10
	c-5,0-9,4-9,9v230c0,5,4,9,9,9h180c5,0,9-4,9-9V10z"/>
<path id="text1386" fill="#FF0000" d="M28.809,15.542h4.321v13.264c0,1.831-0.568,3.198-1.706,4.104
	c-1.129,0.905-2.842,1.357-5.14,1.357h-0.875v-2.863h0.674c0.898,0,1.574-0.22,2.031-0.659c0.463-0.439,0.695-1.086,0.695-1.938
	V15.542 M30.964,38.173c-1.316,0-2.338,0.427-3.064,1.279s-1.088,2.053-1.088,3.602c0,1.542,0.363,2.738,1.088,3.591
	c0.726,0.854,1.748,1.28,3.064,1.28c1.324,0,2.349-0.426,3.075-1.28c0.726-0.853,1.088-2.049,1.088-3.591
	c0-1.548-0.363-2.749-1.088-3.602C33.313,38.6,32.288,38.173,30.964,38.173 M30.964,35.428c2.694,0,4.803,0.676,6.33,2.027
	s2.29,3.218,2.29,5.599c0,2.374-0.763,4.238-2.29,5.589s-3.636,2.027-6.33,2.027c-2.686,0-4.796-0.676-6.33-2.027
	c-1.526-1.351-2.289-3.215-2.289-5.589c0-2.381,0.763-4.248,2.289-5.599C26.168,36.104,28.278,35.428,30.964,35.428 M24.163,55.846
	h4.321v5.363l6.228-5.363h5.017l-8.068,6.957l8.899,7.734h-5.41l-6.666-5.786v5.786h-4.321V55.846 M25.218,75.998h11.66v2.863
	h-7.339v2.735h6.901v2.863h-6.901v3.365h7.586v2.863H25.218V75.998 M30.37,102.663c0.905,0,1.552-0.147,1.941-0.442
	c0.396-0.296,0.595-0.781,0.595-1.457c0-0.669-0.199-1.147-0.595-1.437c-0.389-0.288-1.036-0.433-1.941-0.433h-1.818v3.769H30.37
	 M28.551,105.28v5.56H24.23V96.149h6.599c2.207,0,3.823,0.325,4.848,0.974c1.033,0.649,1.548,1.677,1.548,3.08
	c0,0.971-0.269,1.768-0.808,2.391c-0.531,0.623-1.335,1.083-2.413,1.378c0.591,0.118,1.118,0.388,1.582,0.807
	c0.472,0.413,0.946,1.044,1.425,1.89l2.345,4.172h-4.601l-2.042-3.65c-0.412-0.734-0.831-1.236-1.257-1.506
	c-0.418-0.27-0.98-0.403-1.683-0.403h-1.222"/>
<path id="text1408" fill="#FF0000" d="M172.118,233.813h-4.319v-13.265c0-1.83,0.568-3.198,1.706-4.103
	c1.13-0.905,2.843-1.358,5.14-1.358h0.875v2.863h-0.672c-0.898,0-1.576,0.22-2.031,0.659c-0.465,0.439-0.697,1.086-0.697,1.938
	L172.118,233.813 M169.965,211.182c1.316,0,2.338-0.428,3.064-1.279c0.725-0.854,1.087-2.055,1.087-3.602
	c0-1.543-0.362-2.738-1.087-3.592c-0.728-0.854-1.748-1.277-3.064-1.277c-1.324,0-2.349,0.426-3.074,1.277
	c-0.727,0.854-1.09,2.049-1.09,3.592c0,1.547,0.363,2.748,1.09,3.602C167.616,210.754,168.641,211.182,169.965,211.182
	 M169.965,213.927c-2.693,0-4.803-0.677-6.33-2.028c-1.525-1.351-2.287-3.215-2.287-5.598c0-2.375,0.762-4.236,2.287-5.589
	c1.527-1.351,3.637-2.026,6.33-2.026c2.686,0,4.795,0.676,6.33,2.026c1.525,1.353,2.289,3.214,2.289,5.589
	c0,2.383-0.764,4.247-2.289,5.598C174.76,213.25,172.648,213.927,169.965,213.927 M176.766,193.51h-4.32v-5.363l-6.229,5.363h-5.016
	l8.066-6.958l-8.898-7.733h5.408l6.666,5.787v-5.787h4.322V193.51 M175.71,173.355h-11.659v-2.862h7.34v-2.734h-6.901v-2.864h6.901
	v-3.365h-7.588v-2.862h11.907V173.355 M170.559,146.691c-0.904,0-1.551,0.146-1.94,0.442c-0.396,0.296-0.593,0.779-0.593,1.455
	c0,0.669,0.195,1.147,0.593,1.437c0.391,0.289,1.036,0.436,1.94,0.436h1.818v-3.77H170.559 M172.377,144.074v-5.561h4.321v14.69
	H170.1c-2.207,0-3.822-0.324-4.85-0.976c-1.031-0.647-1.548-1.676-1.548-3.08c0-0.969,0.271-1.767,0.81-2.39
	c0.53-0.624,1.334-1.082,2.411-1.378c-0.591-0.117-1.118-0.387-1.583-0.808c-0.471-0.413-0.945-1.042-1.425-1.89l-2.345-4.172h4.602
	l2.042,3.65c0.411,0.734,0.83,1.236,1.259,1.506c0.418,0.27,0.979,0.402,1.682,0.402h1.223"/>
<g id="g2715" transform="matrix(0.999895,0.000000,0.000000,1.000000,-149.0774,-176.9670)">
	<path id="path1619" sodipodi:nodetypes="cccccccccccccccccccccccc" d="M240.331,235.686c-7.022,0.649-9.616,7.8-14.972,10.086
		c0.209,3.541-7.642,5.646-9.263,9.755c-9.413,0.379-4.876,13.916,2.923,9.259c2.261-6.744,11.247-7.473,7.419,1.57
		c-4.065,13.735-6.358,30.323,4.248,42.614c-4.803-0.235-28.226-1.426-16.56,3.452c6.358,3.557,26.429,2.01,12.747,8.802
		c-5.49,3.515-20.654,16.318-6.595,10.979c-0.621,7.539-0.099,16.322-0.27,24.306c15.577,6.367,32.473,5.747,48.83,4.547
		c4.067-2.879,17.685-0.987,15.379-9.053c-0.408-8.442,1.41-19.115-2.293-26.124c16.271,1.992,0.931-4.738-6.433-8.079
		c-11.029-3.526,7.763-8.935,10.432-14.558c7.688-7.465-18.187,5.318-13.783-0.909c6.598-11.334,0.373-23.754,0.99-35.564
		c0.522-3.353-5.63-18.683,3.182-12.422c-1.987,8.701,14.093,5.738,9.03-1.467c-8.026,0.129-11.536-12.859-21.045-11.533
		c-6.941,3.797-8.231,9.558-11.373-0.414C249.936,237.438,245.286,234.953,240.331,235.686z M240.196,247.466
		C248.679,257.543,227.738,244.539,240.196,247.466z"/>
	
		<linearGradient id="path1623_1_" gradientUnits="userSpaceOnUse" x1="3646.2297" y1="4582.0371" x2="3856.7075" y2="4407.0332" gradientTransform="matrix(0.1448 0 0 0.1449 -286.9238 -313.6415)">
		<stop  offset="0" style="stop-color:#008200"/>
		<stop  offset="1" style="stop-color:#00D000"/>
	</linearGradient>
	<path id="path1623" sodipodi:nodetypes="ccccccc" fill="url(#path1623_1_)" d="M241.194,318.088
		c-10.143,0-18.31,7.508-18.31,16.832v19.748c13.497,6.148,42.485,6.472,58.446,0V334.92c0-9.324-8.167-16.832-18.311-16.832
		H241.194z"/>
	
		<linearGradient id="path1625_1_" gradientUnits="userSpaceOnUse" x1="909.2666" y1="706.8937" x2="916.831" y2="704.5996" gradientTransform="matrix(0.9998 0 0 1 -667.6674 -366.4531)">
		<stop  offset="0" style="stop-color:#0083CC"/>
		<stop  offset="1" style="stop-color:#24A4CC"/>
	</linearGradient>
	<path id="path1625" sodipodi:nodetypes="cccccccccc" fill="url(#path1625_1_)" d="M245.87,318.028l-9.186,12.994l6.591,9.982
		l-8.325,11.99l3.275,5.552c3.663,0.526,7.136,0.762,10.609,0.705l4.044-5.548l-7.701-12.762l6.928-11.162L245.87,318.028z"/>
	
		<linearGradient id="path1627_1_" gradientUnits="userSpaceOnUse" x1="910.4415" y1="705.5187" x2="914.3135" y2="704.9655" gradientTransform="matrix(0.9998 0 0 1 -667.6674 -366.4531)">
		<stop  offset="0" style="stop-color:#F0EB00"/>
		<stop  offset="1" style="stop-color:#FFFF00"/>
	</linearGradient>
	<path id="path1627" sodipodi:nodetypes="cccccccccc" fill="url(#path1627_1_)" d="M245.87,318.028l-4.67,13.578l2.647,9.516
		l-5.654,11.99l2.449,5.668c2.265,0.293,4.275,0.354,5.458,0.354l2.454-5.313l-4.204-12.76l2.861-9.937L245.87,318.028z"/>
	
		<linearGradient id="path1629_1_" gradientUnits="userSpaceOnUse" x1="886.4976" y1="688.3889" x2="947.0769" y2="688.3889" gradientTransform="matrix(0.9998 0 0 1 -667.976 -367.6797)">
		<stop  offset="0" style="stop-color:#0083CC"/>
		<stop  offset="1" style="stop-color:#24A4CC"/>
	</linearGradient>
	<path id="path1629" sodipodi:nodetypes="cccccccccccc" fill="url(#path1629_1_)" d="M235.63,311.287l-18.646-0.346l19.212,5.367
		l-17.14,13.506l27.122-11.601l20.53,18.872c0,0-11.679-17.487-10.548-16.449c1.129,1.039,25.991,2.598,25.991,2.598l-15.066-7.271
		c0,0,15.066-12.293,14.314-11.602c-0.754,0.692-27.31,7.791-27.31,7.791L235.63,311.287z"/>
	
		<linearGradient id="path1631_1_" gradientUnits="userSpaceOnUse" x1="2972.3933" y1="4369.8311" x2="3144.7495" y2="4126.3516" gradientTransform="matrix(0.1868 0 0 0.1449 -322.415 -326.9423)">
		<stop  offset="0" style="stop-color:#FFD8C1"/>
		<stop  offset="1" style="stop-color:#FFEDED"/>
	</linearGradient>
	<path id="path1631" fill="url(#path1631_1_)" d="M273.385,288.36c0,15.099-10.883,27.35-24.293,27.35
		c-13.41,0-24.294-12.251-24.294-27.35c0-15.096,10.884-27.349,24.294-27.349C262.502,261.011,273.385,273.263,273.385,288.36z"/>
	<g id="g1633" transform="matrix(0.144857,0.000000,0.000000,9.790296e-2,167.1088,238.1400)">
		<path id="path1635" fill="#FFFFFF" d="M560.612,515.646c0,15.7-13.532,28.448-30.212,28.448c-16.68,0-30.219-12.748-30.219-28.448
			c0-15.7,13.538-28.438,30.219-28.438C547.08,487.207,560.612,499.945,560.612,515.646z"/>
		<path id="path1637" fill="#04CD04" d="M534.715,516.304c0,13.147-7.74,23.81-17.274,23.81c-9.527,0-17.26-10.663-17.26-23.81
			c0-13.137,7.733-23.8,17.26-23.8C526.974,492.504,534.715,503.167,534.715,516.304z"/>
		<path id="path1639" d="M521.763,518.299c0,10.583-4.834,19.172-10.794,19.172s-10.788-8.588-10.788-19.172
			c0-10.593,4.827-19.182,10.788-19.182S521.763,507.706,521.763,518.299z"/>
	</g>
	<g id="g1641" transform="matrix(0.144857,0.000000,0.000000,9.790296e-2,157.0203,237.7991)">
		<path id="path1643" fill="#FFFFFF" d="M530.046,514.519c0,15.7-13.539,28.448-30.212,28.448c-16.68,0-30.212-12.748-30.212-28.448
			c0-15.7,13.532-28.428,30.212-28.428C516.507,486.091,530.046,498.819,530.046,514.519z"/>
		<path id="path1645" fill="#04CD04" d="M504.149,515.177c0,13.147-7.733,23.82-17.267,23.82s-17.26-10.673-17.26-23.82
			c0-13.137,7.727-23.8,17.26-23.8S504.149,502.041,504.149,515.177z"/>
		<path id="path1647" d="M491.197,517.172c0,10.583-4.834,19.172-10.788,19.172c-5.96,0-10.788-8.588-10.788-19.172
			c0-10.593,4.827-19.182,10.788-19.182C486.363,497.991,491.197,506.579,491.197,517.172z"/>
	</g>
	
		<linearGradient id="path1651_1_" gradientUnits="userSpaceOnUse" x1="3617.3875" y1="4283.1543" x2="3647.877" y2="4247.292" gradientTransform="matrix(0.1448 0 0 0.1449 -287.0615 -313.6083)">
		<stop  offset="0" style="stop-color:#C10000"/>
		<stop  offset="1" style="stop-color:#FF433E"/>
	</linearGradient>
	<path id="path1651" sodipodi:nodetypes="ccc" fill="url(#path1651_1_)" d="M232.181,302.703c1.791,8.039,10.652,5.748,17.02-0.805
		C242.212,302.043,237.44,302.487,232.181,302.703z"/>
	<path id="path1653" sodipodi:nodetypes="ccccc" fill="#005A00" d="M261.671,339.27l1.819,0.162l1.973,19.196l-4.985,0.331
		L261.671,339.27z"/>
	<path id="path1655" sodipodi:nodetypes="ccccccc" d="M235.522,290.802c-1.141,1.702-6.232,2.89-5.997,4.175
		c0.237,1.287,5.153,2.285,6.291,3.025l0.476-0.632c-0.999-0.651-5.048-1.286-5.243-2.344c-0.194-1.058,4.559-2.445,5.625-4.037
		L235.522,290.802z"/>
	
		<linearGradient id="path1657_1_" gradientUnits="userSpaceOnUse" x1="901.128" y1="634.551" x2="930.1348" y2="623.0768" gradientTransform="matrix(0.9998 0 0 1 -667.976 -367.6797)">
		<stop  offset="0" style="stop-color:#008200"/>
		<stop  offset="1" style="stop-color:#00D000"/>
	</linearGradient>
	<path id="path1657" sodipodi:nodetypes="ccccccccccccc" fill="url(#path1657_1_)" d="M241.095,238.248
		c-4.149,0.413-8.145,3.456-10.431,9.011c17.251-11.111,14.029,11.492,14.029,11.492c-0.218-0.096-0.714-0.085-0.765-0.248
		c-0.545-1.754-16.553-20.877-27.248,1.736c14.433-10.095,14.469-0.441,12.589,6.697c-0.811,4.302-2.292,9.59-2.292,9.59
		c14.989-2.925,29.374-1.387,44.245,1.033c0,0,0.063-5.47-0.194-6.991c1.092-8.521-10.333-24.699,9.284-16.387
		c-21.097-26.439-24.106,5.573-24.379,4.57c-0.003-0.012-0.083,0.011-0.091,0C255.206,244.145,247.948,237.568,241.095,238.248z"/>
	
		<linearGradient id="path1659_1_" gradientUnits="userSpaceOnUse" x1="887.2408" y1="626.2961" x2="890.1547" y2="624.0855" gradientTransform="matrix(0.9998 0 0 1 -658.3558 -376.9404)">
		<stop  offset="0" style="stop-color:#F0EB00"/>
		<stop  offset="1" style="stop-color:#FFFF00"/>
	</linearGradient>
	<path id="path1659" fill="url(#path1659_1_)" d="M232.522,248.456c0,1.285-1.18,2.327-2.634,2.327
		c-1.454,0-2.635-1.042-2.635-2.327c0-1.284,1.181-2.326,2.635-2.326C231.342,246.13,232.522,247.172,232.522,248.456z"/>
	<path id="path1661" sodipodi:nodetypes="ccc" fill="#FFFFFF" d="M233.73,303.199c1.792,6.228,8.023,2.93,13.15-0.604
		C239.889,302.74,238.988,302.983,233.73,303.199z"/>
	
		<linearGradient id="path1663_1_" gradientUnits="userSpaceOnUse" x1="883.0197" y1="629.2844" x2="885.9337" y2="627.0737" gradientTransform="matrix(0.9998 0 0 1 -667.976 -367.6797)">
		<stop  offset="0" style="stop-color:#F0EB00"/>
		<stop  offset="1" style="stop-color:#FFFF00"/>
	</linearGradient>
	<path id="path1663" fill="url(#path1663_1_)" d="M218.68,260.707c0,1.284-1.18,2.327-2.634,2.327c-1.454,0-2.634-1.042-2.634-2.327
		c0-1.285,1.18-2.327,2.634-2.327C217.5,258.38,218.68,259.422,218.68,260.707z"/>
	
		<linearGradient id="path1665_1_" gradientUnits="userSpaceOnUse" x1="902.7766" y1="628.0334" x2="905.6907" y2="625.8226" gradientTransform="matrix(0.9998 0 0 1 -622.9614 -371.5566)">
		<stop  offset="0" style="stop-color:#F0EB00"/>
		<stop  offset="1" style="stop-color:#FFFF00"/>
	</linearGradient>
	<path id="path1665" fill="url(#path1665_1_)" d="M283.451,255.578c0,1.284-1.181,2.327-2.635,2.327
		c-1.455,0-2.635-1.042-2.635-2.327c0-1.285,1.18-2.327,2.635-2.327C282.27,253.252,283.451,254.294,283.451,255.578z"/>
	<path id="path1667" sodipodi:nodetypes="ccccc" d="M265.782,294.102c8.368,1.666,7.521-11.729-0.362-6.887l0.664,0.104
		c5.53-2.893,6.966,7-1.524,6.909L265.782,294.102z"/>
	<path id="path1669" sodipodi:nodetypes="ccccc" d="M266.416,292.723c4.776,0.951,4.291-6.691-0.205-3.93l0.241-0.002
		c3.156-1.65,4.111,4.057-0.732,4.004L266.416,292.723z"/>
	
		<linearGradient id="path1671_1_" gradientUnits="userSpaceOnUse" x1="906.6451" y1="645.2775" x2="927.095" y2="641.9731" gradientTransform="matrix(0.9998 0 0 1 -667.976 -367.6797)">
		<stop  offset="0" style="stop-color:#F0EB00"/>
		<stop  offset="1" style="stop-color:#FFFF00"/>
	</linearGradient>
	<path id="path1671" sodipodi:nodetypes="ccccc" fill="url(#path1671_1_)" d="M226.841,277.183l0.93-3.323
		c14.91-1.425,30.439-1.235,43.178,1.139c0.414,0.855,0.414,2.754,0.414,2.754C256.729,275.569,241.991,275.473,226.841,277.183z"/>
	
		<linearGradient id="path1673_1_" gradientUnits="userSpaceOnUse" x1="4155.1216" y1="3753.051" x2="3827.6265" y2="4127.9858" gradientTransform="matrix(0.1448 0 0 0.1449 -286.9189 -313.6405)">
		<stop  offset="0" style="stop-color:#FFFFFF"/>
		<stop  offset="1" style="stop-color:#FFFFFF;stop-opacity:0"/>
	</linearGradient>
	<path id="path1673" fill="url(#path1673_1_)" d="M241.102,238.25c-3.95,0.393-7.698,3.252-10.026,8.309
		c-0.377-0.184-0.709-0.414-1.169-0.414c-1.454,0-2.654,1.031-2.654,2.315c0,0.483,0.299,0.868,0.585,1.24
		c-3.521,0.592-7.122,3.161-10.342,9.218c-0.429-0.268-0.873-0.537-1.438-0.537c-1.455,0-2.654,1.031-2.654,2.314
		c0,1.285,1.199,2.356,2.654,2.356c1.454,0,2.607-1.072,2.607-2.356c0-0.513-0.31-0.896-0.629-1.281
		c12.952-8.412,13.054,0.638,11.241,7.523c-0.811,4.302-2.293,9.591-2.293,9.591c0.016-0.004,0.031,0.002,0.045,0l-0.18,0.66
		c0.045-0.005,0.09,0.006,0.135,0c-1.367,3.422-2.158,7.168-2.158,11.161c0,9.635,4.458,18.069,11.152,22.942h-0.359l-18.615-0.331
		l19.199,5.333L219.07,329.81l6.114-2.604c-1.335,2.338-2.292,4.894-2.292,7.729v19.718c3.944,1.797,9.364,2.942,15.243,3.721
		l0.09,0.166c0.822,0.117,1.577,0.074,2.383,0.164l0.045,0.084c2.264,0.293,4.257,0.328,5.44,0.33l0.045-0.041
		c0.887,0.022,1.817,0.18,2.699,0.164c3.932,0.1,7.733-0.18,11.646-0.496v0.207l4.992-0.33l-0.046-0.248
		c5.88-0.77,11.45-1.909,15.917-3.721v-19.717c0-4.804-2.223-9.092-5.711-12.152c2.504,0.173,6.52,0.455,6.52,0.455l-15.062-7.275
		c0,0,15.049-12.309,14.296-11.615c-0.458,0.422-9.087,2.836-16.859,4.96c5.368-5.019,8.856-12.495,8.856-20.958
		c0-3.958-0.768-7.681-2.113-11.078c-0.002-0.104-0.035-0.321-0.045-0.496c0.01-0.985,0.051-4.85-0.18-6.2
		c1.067-8.335-9.661-23.885,8.227-16.782c-0.629,0.425-1.079,1.024-1.079,1.777c0,1.285,1.155,2.356,2.609,2.356
		c1.454,0,2.653-1.071,2.653-2.356c0-1.284-1.197-2.315-2.653-2.315c-0.408,0-0.69,0.226-1.033,0.372
		c-20.568-25.121-23.561,6.119-23.832,5.125c-0.003-0.011-0.085,0.011-0.091,0C255.212,244.146,247.956,237.569,241.102,238.25z
		 M240.159,244.367c6.372,1.669,4.541,14.385,4.541,14.385c-0.218-0.095-0.713-0.084-0.764-0.248
		c-0.308-0.99-5.58-7.335-12.006-8.763c0.301-0.377,0.585-0.785,0.585-1.281c0-0.674-0.335-1.27-0.855-1.695
		C235.381,244.573,238.225,243.861,240.159,244.367z"/>
</g>
</svg>
