<?xml version="1.0" encoding="UTF-8" standalone="no"?>
<!-- Generator: Adobe Illustrator 9.0, SVG Export Plug-In  -->
<!-- This set of SVG files is a complete cards game with figures, numbers	-->
<!--    and backs of cards completely designed in SVG.				-->
<!--    									-->
<!--    Copyright (C) 2004 David Bellot						-->
<!--										-->
<!--    This library is free software; you can redistribute it and/or		-->
<!--    modify it under the terms of the GNU Lesser General Public		-->
<!--    License as published by the Free Software Foundation; either		-->
<!--    version 2 of the License, or (at your option) any later version		-->
<!--										-->
<!--    This library is distributed in the hope that it will be useful,		-->
<!--    but WITHOUT ANY WARRANTY; without even the implied warranty of		-->
<!--    MERCHANTABILITY or FITNESS FOR A PARTICULAR PURPOSE.  See the GNU	-->
<!--    Lesser General Public License for more details.				-->
<!--										-->
<!--    You should have received a copy of the GNU Lesser General Public	-->
<!--    License along with this library; if not, write to the Free Software	-->
<!--    Foundation, Inc., 59 Temple Place, Suite 330, Boston, MA 02111-1307  USA-->
<!--										-->
<!--    Contact the author David Bellot at bellot@stat.berkeley.edu or 		-->
<!--    david.bellot@free.fr or yimyom@users.sourceforge.net			-->
<svg
   xmlns:dc="http://purl.org/dc/elements/1.1/"
   xmlns:cc="http://web.resource.org/cc/"
   xmlns:rdf="http://www.w3.org/1999/02/22-rdf-syntax-ns#"
   xmlns:svg="http://www.w3.org/2000/svg"
   xmlns="http://www.w3.org/2000/svg"
   xmlns:xlink="http://www.w3org/1999/xlink"
   xmlns:sodipodi="http://inkscape.sourceforge.net/DTD/sodipodi-0.dtd"
   xmlns:inkscape="http://www.inkscape.org/namespaces/inkscape"
   width="167.0864258pt"
   height="242.6674805pt"
   viewBox="0 0 167.0864258 242.6674805"
   xml:space="preserve"
   id="svg3109"
   sodipodi:version="0.32"
   inkscape:version="0.43"
   sodipodi:docname="Joker_black_02.svg"
   sodipodi:docbase="G:\Mes documents\francois\doc_jeux\cartes svg"><metadata
   id="metadata3563"><rdf:RDF><cc:Work
       rdf:about=""><dc:format>image/svg+xml</dc:format><dc:type
         rdf:resource="http://purl.org/dc/dcmitype/StillImage" /></cc:Work></rdf:RDF></metadata><defs
   id="defs3561"><g
     id="club"><path
       d="M 3.35,4.66 C 3.35,2.85 1.84,1.38 -0.03,1.38 C -1.9,1.38 -3.41,2.85 -3.41,4.66 C -3.41,6.47 -1.9,7.94 -0.03,7.94 C 1.84,7.94 3.35,6.47 3.35,4.66 z "
       id="path52" /><path
       d="M 7.71,-1.55 C 7.71,-3.36 6.2,-4.83 4.33,-4.83 C 2.46,-4.83 0.95,-3.36 0.95,-1.55 C 0.95,0.26 2.46,1.73 4.33,1.73 C 6.2,1.73 7.71,0.26 7.71,-1.55 z "
       id="path54" /><path
       d="M -0.95,-1.57 C -0.95,-2.23 -1.15,-2.85 -1.5,-3.37 C -2.1,-4.26 -3.15,-4.85 -4.33,-4.85 C -6.2,-4.85 -7.71,-3.38 -7.71,-1.57 C -7.71,0.24 -6.2,1.71 -4.33,1.71 C -2.46,1.71 -0.95,0.24 -0.95,-1.57 z "
       id="path56" /><path
       d="M 3.94,-7.94 C 2.27,-7.94 1.39,-6.58 0.93,-5.22 C 0.47,-3.86 0.43,-2.5 0.43,-2.5 L -0.43,-2.5 C -0.43,-2.5 -0.59,-7.93 -3.93,-7.94 L 3.94,-7.94 z "
       id="path58" /><path
       d="M -2.32,2.25 C -0.42,0.35 -0.42,-2.5 -0.42,-2.5 L 0.43,-2.51 C 0.43,-2.51 0.43,0.4 2.28,2.25"
       id="path60" /><path
       d="M -1.94,-3.85 C -0.04,-1.95 2.81,-1.95 2.81,-1.95 L 2.81,-1.1 C 2.81,-1.1 -0.1,-1.1 -1.95,0.75"
       id="path62" /><path
       d="M 1.87,-3.86 C -0.03,-1.96 -2.88,-1.96 -2.88,-1.96 L -2.88,-1.11 C -2.88,-1.11 0.03,-1.11 1.88,0.74"
       id="path64" /></g><g
     id="diamond"><path
       style="fill:#e6180a"
       d="M 0,0 C -2.56,0 -5.12,0 -7.68,0 C -6.8053,0.039 -6.061,0.605 -5.358,1.0728 C -3.779,2.264 -2.3,3.63 -1.132,5.228 C -0.587,6.032 -0.0144,6.936 0,7.94 M -7.68,0 C -6.57,-0.035 -5.622,-0.7413 -4.776,-1.393 C -3.281,-2.648 -1.987,-4.141 -0.895,-5.757 C -0.494,-6.426 -0.022,-7.135 0,-7.94 C 0,-5.293 0,-2.647 0,0 M 0,-7.94 C 0.038,-6.758 0.758,-5.734 1.438,-4.82 C 2.65,-3.31 4.086,-1.974 5.666,-0.857 C 6.28,-0.474 6.932,-0.0185 7.68,0 C 5.12,0 2.56,0 0,0 M 7.68,0 C 6.57,0.035 5.622,0.741 4.776,1.392 C 3.281,2.648 1.987,4.141 0.895,5.757 C 0.494,6.426 0.0225,7.135 0,7.94 C 0,5.293 0,2.647 0,0"
       id="path67" /></g><g
     id="heart"><path
       style="fill:#e6180a"
       d="M -7.67,3.93 C -7.66,-0.78 -1.76,-4.21 -0.03,-7.94 C 1.72,-4.22 7.63,-0.82 7.67,3.89 C 7.68,6.11 5.96,7.92 3.85,7.92 C 1.73,7.92 0,6.13 0,3.91 C 0,6.14 -1.71,7.94 -3.82,7.94 C -5.94,7.95 -7.66,6.15 -7.67,3.93 z "
       id="path70" /></g><g
     id="spade"><path
       d="M 3.92,-7.93 C 2.25,-7.93 1.37,-6.15 0.91,-4.37 C 0.45,-2.59 0.41,-0.81 0.41,-0.81 L -0.44,-0.8 C -0.44,-0.8 -0.6,-7.93 -3.94,-7.93 L 3.92,-7.93 z "
       id="path2186" /><path
       d="M 6.75,-0.8 C 6.74,2.67 1.53,5.19 0,7.93 C -1.53,5.18 -6.74,2.66 -6.75,-0.8 C -6.75,-2.44 -5.24,-3.77 -3.37,-3.77 C -1.51,-3.77 0,-2.44 0,-0.8 C 0,-2.44 1.51,-3.77 3.38,-3.77 C 5.25,-3.77 6.75,-2.44 6.75,-0.8 z "
       id="path75" /></g><g
     id="joker"
     transform="translate(-1094.1,-924.2)"><path
       style="fill:#e6180a"
       d="M 341.26,836.91 L 337.57,844.04 L 341.38,868.84 L 351.31,867.12 L 370.99,853.8 L 349.11,832.98"
       transform="translate(-924.12,211.4)"
       id="path576" /><path
       style="fill:#e6180a"
       d="M 416.53,178.87 C 417.91,179.39 384.92,210.49 380.77,210.49 L 352.78,226.04 L 336.11,250.66 L 323.58,278.39 L 322.81,309.14 L 334.47,325.72 L 359.26,330.82 L 390.27,325.38 L 424.25,303.76 L 441.47,281.45 L 447.98,259.66 L 445.68,245.13 L 430.25,237.68 L 417.07,236.45 L 416.15,230.9 L 418.52,217.57 L 407.23,208.57 L 386.62,209.93 L 420.08,179.67 L 454.75,188.46 L 471.11,185.5 L 517.7,242.67 L 492.77,277.02 L 488.92,291.86 L 494.1,312.76 L 501.88,334.19 L 498.07,357.34 L 492.2,365.63 L 492.89,383.94 L 489.26,393.27 L 476.65,398.63 L 464.9,393.62 L 457.65,381.01 L 461.28,366.32 L 471.12,360.79 L 479.93,360.62 L 481.49,358.03 L 474.58,340.23 L 458.86,328.66 L 446.07,327.97 L 414.98,349.04 L 411.52,367.19 L 411.18,397.59 L 441.24,417.46 L 454.88,439.4 L 459.2,464.97 L 462.66,496.76 L 491.16,567.59 L 501.18,585.56 L 497.38,588.67 L 474.06,577.78 L 452.98,556.01 L 451.77,539.43 L 455.75,526.47 L 450.22,516.8 L 440.89,516.97 L 435.02,526.3 L 435.88,533.9 L 443.48,546.34 L 440.03,565.52 L 426.21,591.09 L 418.95,591.26 L 404.61,570.87 L 396.66,543.75 L 404.09,526.13 L 403.92,519.04 L 391.31,508.85 L 381.63,511.96 L 374.55,522.84 L 381.81,546.51 L 374.03,560.51 L 344.83,585.21 L 339.48,582.1 L 332.74,564.48 L 331.01,538.22 L 346.91,525.78 L 348.12,511.96 L 339.13,504.19 L 329.29,505.74 L 319.44,512.82 L 318.75,525.78 L 318.92,541.33 L 299.4,566.38 L 277.8,582.79 L 268.82,580.37 L 265.02,568.97 L 264.33,521.29 L 283.33,511.27 L 288.86,500.39 L 282.81,490.71 L 270.37,486.91 L 259.49,493.82 L 254.65,505.22 L 258.28,520.77 L 250.33,529.58 L 238.59,539.43 L 208.01,553.94 L 194.53,556.01 L 194.7,536.32 L 205.41,502.29 L 214.4,489.33 L 234.78,483.28 L 241.35,470.67 L 237.72,460.82 L 224.59,454.95 L 212.67,461.69 L 208.52,469.63 L 206.28,481.38 L 190.04,492.61 L 147.71,505.57 L 141.67,499.87 L 154.28,463.41 L 170.86,447 L 190.38,444.24 L 198.33,430.59 L 194.53,417.63 L 182.78,412.45 L 171.73,417.8 L 162.92,437.15 L 146.5,447.87 L 106.94,455.12 L 111.43,437.85 L 120.93,420.22 L 127.67,414.35 L 138.73,402.08 L 156.87,400.53 L 164.12,392.93 L 166.54,386.19 L 165.68,379.28 L 155.83,372.89 L 139.59,377.72 L 131.13,378.24 L 115.06,362.69 L 109.01,352.67 L 112.81,350.77 L 133.72,351.29 L 157.73,344.9 L 204.9,323.13 L 225.46,319.16 L 246.36,323.48 L 262.25,332.98 L 261.91,322.79 L 268.47,314.32 L 289.2,310.35 L 290.24,307.75 L 290.93,292.55 L 302.16,282.88 L 310.63,252.99 L 327.56,226.73 L 327.73,218.78 L 316.85,195.8 L 317.19,171.44 L 322.03,157.8 L 331.53,144.67 L 353.82,134.99 L 362.8,121.52 L 372.13,117.2 L 383.53,120.31 L 390.79,131.88 L 387.16,148.47 L 373.34,154.34 L 357.45,147.95 L 354.34,149.16 L 352.09,166.78 L 356.58,181.98 L 366.43,187.86 L 402.71,178.7"
       transform="translate(-924.12,211.4)"
       id="path578" /><rect
       width="5.8699999"
       height="44.919998"
       x="416.01001"
       y="181.81"
       transform="matrix(0.34,0.4,-0.75,0.67,-511.6,101.76)"
       style="fill:#e6180a"
       id="rect580" /><path
       style="fill:#e6180a"
       d="M 97.01,367.81 L 112.28,371.25 L 123.03,389.53 L 111.2,446.53 L 80.45,503.75 L 33.34,552.15 L -8.17,552.15 L -14.84,543.11 L 38.07,495.36 L 80.45,426.1"
       transform="translate(-924.12,211.4)"
       id="path582" /><path
       style="fill:#e6180a"
       d="M 367.53,586.81 L 374.17,581.83 L 393.25,577.13 L 399.34,582.66 L 409.57,621.38 L 413.17,642.39 L 410.4,681.66 L 394.64,745.55 L 383.02,773.75 L 364.22,798.09 L 341.26,813.85 L 342.92,802.79 L 349.56,792.01 L 362.28,770.99 L 373.62,737.53 L 383.85,692.45 L 387.45,660.37 L 382.47,624.42 L 368.09,598.7"
       transform="translate(-924.12,211.4)"
       id="path584" /><path
       style="fill:#000000"
       d="M 261.98,648.49 L 266.38,644.16 L 280.01,642.8 L 290.73,638.93 L 292.42,637.01 L 298.07,638.44 L 300.67,634.79 L 304.62,636.59 L 307.63,635.92 L 314.55,634.03 L 331.08,601.97 L 338.75,583.23 L 344.44,585.97 L 351.17,583.94 L 396.56,570.02 L 399.52,576.22 L 390.77,576.82 L 374.63,581.1 L 365.1,587.44 L 367,597.78 L 360.92,600.57 L 348.51,618.46 L 350.04,624.22 L 361.37,621.63 L 367.48,609.24 L 365.45,602.44 L 368.79,601.61 L 381.18,624.24 L 378.35,650.44 L 386.27,664.24 L 381.68,698.64 L 376.77,720.63 L 370.91,743.69 L 361.11,771.6 L 345.39,798.01 L 343.52,786.26 L 352.98,762.27 L 348.45,719.39 L 349.29,679.43 L 339.97,676.41 L 334.53,685.68 L 335.69,774.85 L 340.73,788.12 L 342.58,801.01 L 338.95,816.78 L 345.28,833.03 L 340.85,838.36 L 336.58,848.75 L 343.63,867.79 L 347.5,867.64 L 371.81,852.9 L 376.54,865.52 L 364.87,879.96 L 345.75,884.01 L 334.03,866.77 L 332.04,842.7 L 332.12,834.07 L 325.45,829.9 L 324.74,812.16 L 311.68,776.38 L 308.09,739.06 L 307.59,702.48 L 308.05,679.26 L 280.83,680.69 L 278.47,684.99 L 271.58,680.93 L 259.27,684.48 L 249.83,684.2 L 239.16,690.26 L 219.98,694.77 L 202.08,697.15 L 209.19,689.1 L 246.8,681.69 L 259.76,673.8 L 263.89,654.15"
       transform="translate(-924.12,211.4)"
       id="path586" /><rect
       style="fill:#000000"
       width="5.8800001"
       height="5.0799999"
       x="363.29001"
       y="597.33002"
       transform="matrix(0.79,0,0,0.87,-846.87,289.5)"
       id="rect588" /><rect
       style="fill:#000000"
       width="4.8600001"
       height="12.65"
       x="340"
       y="787.47998"
       transform="matrix(0.92872,0,0,0.979541,-899.2212,228.0425)"
       id="rect590" /><rect
       style="fill:#000000"
       width="6.6700001"
       height="33.560001"
       x="378.38"
       y="628.45001"
       transform="matrix(1.035084,-0.123285,0.116183,1.068469,-1013.278,213.601)"
       id="rect592" /><path
       style="fill:#000000"
       d="M 402.5,576.72 C 402.5,577.94 412.05,598.02 412.05,598.02 L 418.17,628.87 L 418.91,670.49 L 409.36,730.23 L 406.91,736.1 L 409.11,737.33 L 411.56,735.61 L 439.72,676.12 L 450.98,627.89 L 453.43,601.94 L 457.83,603.65 L 454.65,641.35 L 440.21,693.01 L 415.97,743.2 L 389.28,778.7 L 377.04,788.25 L 376.06,783.11 L 391.48,754.95 L 409.6,685.91 L 413.03,645.27 L 405.19,599.98 L 397.6,576.72"
       transform="translate(-924.12,211.4)"
       id="path594" /><g
       transform="translate(-924.12,211.4)"
       id="g596"><path
         style="fill:#e6180a"
         d="M 222.72,65.72 L 242.04,67.41 L 252.67,91.54 L 244.53,109.11 L 217.81,105.83 L 213.51,80.92"
         id="path598" /><path
         style="fill:#e6180a"
         d="M 282.89,41.48 L 298.77,33.74 L 305.1,35.94 L 307.36,44.14 L 307.41,51.82 L 302.89,64.76 L 287.24,78.83 L 259.78,85.1 L 257.81,77.53 L 267.58,74.48 L 280.97,61.37"
         id="path600" /><path
         style="fill:#ff009c"
         d="M 94.46,52.66 C 94.46,58.249122 90.269385,62.78 85.1,62.78 C 79.930615,62.78 75.74,58.249122 75.74,52.66 C 75.74,47.070878 79.930615,42.54 85.1,42.54 C 90.269385,42.54 94.46,47.070878 94.46,52.66 z "
         transform="matrix(1.11,0,0,1.09,-11.05,-5.06)"
         id="path602" /><path
         style="fill:#00ff0a"
         d="M 116.03,107.81 C 116.03,112.28351 111.9155,115.91 106.84,115.91 C 101.7645,115.91 97.65,112.28351 97.65,107.81 C 97.65,103.33649 101.7645,99.71 106.84,99.71 C 111.9155,99.71 116.03,103.33649 116.03,107.81 z "
         transform="matrix(1.176826,0,0,1.264088,-18.46231,-28.01318)"
         id="path604" /><path
         style="fill:#ff9e00"
         d="M 171.01,191.5 C 171.01,196.47609 166.53732,200.51 161.02,200.51 C 155.50268,200.51 151.03,196.47609 151.03,191.5 C 151.03,186.52391 155.50268,182.49 161.02,182.49 C 166.53732,182.49 171.01,186.52391 171.01,191.5 L 171.01,191.5 z "
         transform="matrix(1.174557,0,0,1.184951,-28.51124,-35.03883)"
         id="path606" /><path
         style="fill:#0072ff"
         d="M 214.38,221.21 C 214.38,226.66657 209.82674,231.09 204.21,231.09 C 198.59326,231.09 194.04,226.66657 194.04,221.21 C 194.04,215.75343 198.59326,211.33 204.21,211.33 C 209.82674,211.33 214.38,215.75343 214.38,221.21 z "
         transform="matrix(1.13,0,0,1.19,-26.39474,-42.6379)"
         id="path608" /><path
         style="fill:#ffff00"
         d="M 263.11,233.75 C 263.11,240.35533 257.33895,245.71 250.22,245.71 C 243.10105,245.71 237.33,240.35533 237.33,233.75 C 237.33,227.14467 243.10105,221.79 250.22,221.79 C 257.33895,221.79 263.11,227.14467 263.11,233.75 z "
         transform="matrix(0.903636,0,0,1.084262,24,-18.35793)"
         id="path610" /><path
         style="fill:#e6180a"
         d="M 142.52,160.94 C 142.52,164.00518 139.30988,166.49 135.35,166.49 C 131.39012,166.49 128.18,164.00518 128.18,160.94 C 128.18,157.87482 131.39012,155.39 135.35,155.39 C 139.30988,155.39 142.52,157.87482 142.52,160.94 z "
         transform="matrix(0.91,-0.55,0.55,0.9,-76.81,90.1)"
         id="path612" /><path
         style="fill:#e6180a"
         d="M 168.5,137.99 C 168.5,140.42005 166.89718,142.39 164.92,142.39 C 162.94282,142.39 161.34,140.42005 161.34,137.99 C 161.34,135.55995 162.94282,133.59 164.92,133.59 C 166.89718,133.59 168.5,135.55995 168.5,137.99 z "
         transform="matrix(1.13,0,0,1.06,-21.08981,-8.265232)"
         id="path614" /><path
         style="fill:#e6180a"
         d="M 112.42,185.54 C 112.49722,186.16969 111.67874,186.76485 110.29021,187.0887 C 108.90168,187.41255 107.16832,187.41255 105.77979,187.0887 C 104.39126,186.76485 103.57278,186.16969 103.65,185.54 C 103.57278,184.91031 104.39126,184.31515 105.77979,183.9913 C 107.16832,183.66745 108.90168,183.66745 110.29021,183.9913 C 111.67874,184.31515 112.49722,184.91031 112.42,185.54 z "
         transform="matrix(0.938389,-0.666241,0.652294,0.958452,-114.613,79.73326)"
         id="path616" /><rect
         style="fill:#e6180a"
         width="23.290001"
         height="11.32"
         x="25.879999"
         y="226.53999"
         transform="matrix(0.81772,-0.759927,0.785861,0.790735,-173.2408,79.48402)"
         id="rect618" /><rect
         style="fill:#e6180a"
         width="31.879999"
         height="10.78"
         x="-13.94"
         y="254.42"
         transform="matrix(0.870716,-0.702528,0.734339,0.847166,-187.8661,42.76772)"
         id="rect620" /><path
         style="fill:#e6180a"
         d="M -21.55,286.16 C -21.47295,287.33108 -22.287652,288.43801 -23.669928,289.04033 C -25.052204,289.64266 -26.777796,289.64266 -28.160072,289.04033 C -29.542348,288.43801 -30.35705,287.33108 -30.28,286.16 C -30.35705,284.98892 -29.542348,283.88199 -28.160072,283.27967 C -26.777796,282.67734 -25.052204,282.67734 -23.669928,283.27967 C -22.287652,283.88199 -21.47295,284.98892 -21.55,286.16 L -21.55,286.16 z "
         transform="matrix(0.907717,-0.744927,0.730601,0.939754,-211.4329,-1.807364)"
         id="path622" /><path
         style="fill:#e6180a"
         d="M -24.77,573.32 L -17.44,570.69 L -6.85,576.33 L 2.72,585.26 L 2.82,594.73 L -17.63,605.37 L -27.88,598.57 L -26.86,578.22"
         id="path624" /><path
         style="fill:#e6180a"
         d="M 56.86,267.99 L 80.29,260.58 L 85.7,268.59 L 78.89,358.49 L 92.7,374.51 L 77.89,431.37 L 61.07,438.98 L 19.62,423.37 L 17.62,406.55 L 33.44,329.26 L 52.66,274.8"
         id="path626" /><path
         style="fill:#e6180a"
         d="M 277.36,650.32 L 342.1,635.49 L 358.89,628.3 L 371.1,627.14 L 374.29,633.02 L 374.58,662.09 L 369.42,666.96 L 278.01,674.15 L 268.64,672.48 L 267.99,660.05"
         id="path628" /><path
         style="fill:#e6180a"
         d="M 496.87,107.87 C 498.25,107.87 507.06,109.25 508.27,110.29 C 509.48,111.32 516.21,119.62 516.21,119.62 L 514.14,135.51 L 515.18,142.25 L 527.96,164.53 L 532.8,190.79 L 527.96,224.31 L 518.98,244.7 L 470.95,185.78 L 487.71,180.43 L 503.6,164.19 L 507.23,146.39 L 505.68,144.49 L 489.09,142.42 L 479.42,128.08 L 486.15,112.88"
         id="path630" /><path
         style="fill:#000000"
         d="M 175.26,128.62 C 163.35,137.89 150.3,154.46 136.22,159.93 C 130.62,162.06 120.79,146.44 115.62,159.42 C 107.31,157.04 101.02,160.77 100.62,169.42 C 91.31,169.45 79.58,176.53 74.36,184.46 C 69.14,192.42 78.04,201.21 71.61,208.49 C 56.61,225.45 33.62,238.69 16.19,253.13 C 10.28,257.98 -1.46,264.16 0.14,273.41 C 2.34,286.05 22.25,269.41 26.37,265.91 C 38.29,256.15 50.54,244.85 63.62,236.83 C 66.22,235.24 72.41,228.41 75.49,229.03 C 78.9,229.8 85.8,247 86.51,250.42 C 87.62,256.42 80.6,265.76 78.62,271.42 C 71.92,290.62 64.54,309.83 59.2,329.42 C 53.58,350.05 53.37,373.44 45.82,393.42 C 41.95,403.52 33.81,411.65 28.99,421.42 C 20.95,437.74 14.41,457.79 9.99,475.42 C 5.79,492.18 5.32,512.17 6.61,529.42 C 6.93,532.55 10.61,534.66 10.56,537.42 C 10.49,540.42 4.93,541.18 4.06,544.48 C 2.93,548.75 6.25,552.42 6.18,556.42 C 5.9,571.79 -0.65,589.8 8.61,604.42 C 15.56,614.75 43.61,601.16 47.61,592.91 C 49.93,588.56 46.61,584.22 44.94,580.42 C 39.42,568.99 30.49,562.63 20.61,555.19 C 17.82,553.02 15.81,543.08 18.34,540.03 C 20.61,537.43 24.88,539.43 27.61,539.97 C 34.61,541.49 43.31,540.59 50.61,540.43 C 75.57,539.81 97.95,536.67 121.61,527.75 C 128.49,525.15 140.84,522.07 144.61,515.43 C 123.22,516.43 104.13,531 81.61,527.43 C 81.96,527.49 97.69,511.6 97.69,511.6 C 104.77,502.68 127.98,475.44 133.18,465.43 C 136.88,458.43 140.47,446.49 146.37,441.03 C 149.83,437.83 159.02,439.14 163.61,438.23 C 174.61,436 186.09,431.93 195.16,424.92 C 204.16,417.96 199.54,403.58 213.61,400.09 C 221.4,398.16 228.42,404.98 229.04,412.44 C 229.56,418.69 224.02,425 218.61,427.45 C 213.07,429.96 207.36,427.06 201.61,430.51 C 187.61,438.87 180.01,457.66 175.49,472.44 C 174.21,476.63 171.41,485.91 174.61,489.82 C 178.4,494.44 196.88,488.44 201.61,486.77 C 213.82,482.75 229.99,477.56 239.04,467.89 C 242.14,464.57 241.6,459.53 243.05,455.44 C 246.8,444.83 255.94,438.79 266.43,444.61 C 274.62,449.19 273.09,458.45 267.51,464.44 C 259.92,472.53 248.99,467.46 242.51,476.48 C 233.04,489.68 229.43,508.78 226.28,524.44 C 225.53,528.18 223.61,538.69 227.22,541.44 C 230.22,543.77 235.51,541.44 238.62,540.46 C 248.93,537.44 258.8,533.16 268.03,527.54 C 277.08,522.03 283.82,515.44 291.62,508.44 C 279.62,531.13 269.6,555.08 258.93,578.44 C 255.14,586.73 251.84,601.82 245.12,608.03 C 238.62,614.03 221.14,598.25 214.62,595.82 C 211.37,594.59 204.98,593.07 202.62,596.76 C 196.62,606.16 217.59,619.15 222.62,624.44 C 206.15,623.73 189.06,619.79 172.62,620.48 C 167.62,620.69 159.28,620.44 155.62,624.24 C 151.62,628.25 155.08,632.16 159.62,633.16 C 171.89,635.87 186.12,638.19 198.62,639.44 L 198.62,640.44 C 188.16,642.93 177.17,640.15 166.62,642.03 C 162.99,642.68 157.44,643.83 155.62,647.54 C 153.23,652.84 160.62,655.75 164.62,656.25 C 177.93,657.93 192.24,657.43 205.62,657.43 L 205.62,659.43 C 192.31,660.48 179.58,663.01 166.62,666.2 C 162.62,667.17 153.43,670.11 158.23,675.87 C 161.62,680.05 168.62,679.61 173.62,679.43 C 187.33,678.77 200.95,673.71 214.62,673.43 C 208.19,681.89 195.23,684.1 187.62,692.43 C 174.81,706.78 197.81,701.05 204.62,697.43 C 200.87,708.46 195.2,718.75 190.62,729.43 C 189.05,733.08 185.52,738.13 186.12,742.43 C 186.62,745.81 189.62,744.43 191.09,742.43 C 194.3,737.26 196.36,730.93 198.62,725.43 L 199.62,725.43 L 197.62,735.43 C 206.62,733.96 212.88,711.47 215.62,703.43 L 216.62,703.43 C 215.62,707.18 207.02,721.56 211.18,724.25 C 213.62,725.92 215.62,720.99 216.33,719.43 C 219.62,711.83 223.62,704.25 226.62,696.43 L 227.62,696.43 L 220.62,718.43 C 232.13,715.01 233.09,692.77 240.62,684.43 L 230.62,711.43 C 238.62,710.78 242.33,696.43 244.62,689.43 L 245.62,689.43 L 240.62,706.43 C 247.86,705.25 250.81,694.76 252.62,688.43 L 253.62,688.43 L 250.62,701.43 C 257.12,700.43 258.79,693 260.62,687.43 L 261.62,687.43 C 257.89,699.43 265.62,694.8 268.62,686.43 L 269.62,686.43 L 269.62,692.43 C 275.93,691.43 277.62,684.86 279.62,679.43 L 280.62,679.43 L 279.62,688.43 C 285.14,687.48 286.45,682.43 287.62,677.43 L 288.62,677.43 L 287.62,684.43 C 294.04,683.92 296.01,678.03 297.62,672.43 L 298.62,672.43 L 297.62,681.43 C 302.49,680.56 303.88,675.66 305.62,671.43 L 306.62,671.43 L 306.62,677.43 C 312.62,676.44 314.33,670.88 315.62,665.43 L 316.62,665.43 C 314.29,678.76 321.46,667.89 325.81,666.03 C 329.83,664.43 336.21,664.98 340.62,664.43 C 340.62,706.01 337.28,744.94 350.43,785.43 C 352.09,790.54 355.13,795.22 356.43,800.43 C 358.29,807.87 353.49,818.58 364.61,819.43 C 363.9,836.08 363.34,852.14 374.2,866.43 C 381.95,876.43 403.59,864.73 408.26,856.43 C 416.85,841.16 400.43,827.43 388.61,819.09 C 384.39,816.17 373.37,809.54 375.94,802.64 C 377.52,798.43 384.99,795.26 388.61,793.01 C 398.25,787.01 407.27,779.93 415.56,772.15 C 437.32,751.71 452.29,725.99 465.23,699.44 C 480.62,667.75 491.62,629.81 491.62,594.44 C 491.62,585.44 491.46,576.44 491.33,567.44 C 491.3,565.46 491.22,559.71 487.81,560.44 C 484.51,560.99 485.63,567.9 485.63,570.15 C 485.92,580.44 484.93,590.44 483.5,600.44 C 480.04,625.07 475.38,650.44 465.63,673.44 C 459.04,689.44 448.63,704.44 442.63,720.44 L 441.63,720.44 C 454.63,679.5 456.98,633.45 448.43,591.44 C 446.1,580 442.2,568.24 435.63,558.44 C 434.13,555.96 432.46,551.44 429.42,550.44 C 426.26,549.21 419.07,552.7 416.05,553.99 C 405.98,558.44 395.63,562.23 385.63,566.44 C 394.59,558.74 416.8,543.89 416.53,530.45 C 416.36,522.44 408.63,516.44 409.82,507.44 C 410.59,501.44 417.27,495.44 423.61,495.95 C 426.05,496.17 427.99,497.54 429.89,498.97 C 443.36,509.14 428.93,517.48 428.9,528.43 C 428.87,538.47 434.62,552.48 439.56,561.13 C 442.62,566.65 449.83,582.23 458.16,578.86 C 462.62,577.04 465.02,570.47 466.94,566.47 C 472.25,555.45 479.38,542.14 477.31,529.43 C 475.9,520.79 461.5,510.43 476.23,503.43 C 481.13,501.02 486.15,505.7 486.94,510.43 C 487.97,516.56 482.8,522.43 482.61,528.43 C 482.37,543.6 496.25,555.82 507.03,564.17 C 510.61,566.99 532.07,580.96 534.79,571.2 C 536.01,566.84 531.6,560.17 529.8,556.43 C 523.6,543.81 517.03,531.56 512.02,518.43 C 505.6,501.59 498.24,485.43 495.06,467.43 C 492.11,450.79 494.03,432.43 486.78,416.6 C 481.82,405.87 473.43,397.05 463.58,390.61 C 458.38,387.22 451.06,384.94 447.01,380.05 C 444.02,376.44 447.22,371.49 447.5,367.43 C 448.24,356.67 444.29,346.45 449.2,335.7 C 450.96,331.86 458.29,328.9 461.6,326.43 C 468.33,321.03 473.78,315.08 482.6,313.93 C 497.24,312.02 511.44,330.26 512.6,343.43 C 508.04,343.44 503.84,343.72 499.6,345.6 C 474.06,356.93 499.8,399.7 523.39,378.58 C 532.6,370.25 525.15,361.94 526.34,352.43 C 526.82,348.56 530.37,345.8 532.05,342.43 C 535.15,336.19 536.61,326.43 536.22,319.43 C 535.09,304.24 523.28,290.81 523.87,275.43 C 524.6,256.5 549.07,239.06 557.29,222.43 C 568.61,199.14 570.47,168.8 560.95,144.43 C 558.1,137.13 551.61,131.43 549,124.48 C 547.6,121 551.28,117.03 551.5,113.43 C 552.29,100.69 544.61,88.6 530.61,89.82 C 516.12,91.08 506.15,108.75 514.34,121.43 C 519.61,129.75 529.39,132.12 538.61,130.43 C 538.37,158.52 506.86,173.74 481.61,170 C 467.12,167.86 455.95,159.8 440.61,160.47 C 429.43,160.96 419.39,165.02 408.61,167.43 C 405.07,168.06 399.47,170.43 396.07,168.43 C 382.47,160.85 388.4,144.66 389.61,133.43 C 397.61,139.05 407.03,143.43 416.6,137.79 C 430.86,129.43 427.93,104.89 411.61,100.9 C 403.96,99.03 394.95,102.08 390.26,108.47 C 388.1,111.43 387.97,116.16 385.09,118.49 C 379.4,123.09 370.09,123.64 363.81,128.62 C 350.46,139.2 346.05,160.43 347.77,176.43 C 348.47,183.01 350.6,190.46 353.6,196.43 C 355.88,200.94 360.47,204.72 358.39,210.26 C 354.42,220.82 345.21,230.17 340.41,240.6 C 336.59,248.6 337.21,258.72 333.16,266.24 C 331.17,269.94 326.58,271.64 323.92,274.87 C 319.56,280.18 320.42,287.14 321.59,293.43 C 307.59,290.14 289.96,300.16 293.59,315.43 C 287.54,311.24 279.79,305.43 272.59,303.56 C 241.97,296.43 209.49,321.7 181.5,330.45 C 174.87,332.53 166.53,334.68 159.59,334.42 C 154.59,334.18 147.32,331.59 142.87,334.45 C 135.26,339.42 146.59,346.25 148.59,349.99 C 150.85,354.1 144.18,352.59 142.59,351.84 C 136.59,349.03 120.59,341.99 117.59,336.11 C 115.41,331.58 117.59,321.6 117.57,316.43 C 117.16,295.94 122.35,275.71 122.59,255.41 C 122.59,249.19 123.98,242.55 123.49,236.41 C 123.2,232.76 121.02,229.15 122.78,225.58 C 125.32,220.42 130.39,216.41 133.23,211.24 C 137.16,204.14 138.47,196.03 144.27,190.03 C 150.6,183.41 162.94,177.45 167.28,169.15 C 169.23,165.43 165.6,161.98 167.18,158.62 C 168.51,155.53 174.91,152.79 177.6,150.91 C 186.6,144.69 195,137.92 203.58,131.16 C 206.54,128.82 211.02,121.76 215.09,125.78 C 222.99,133.58 218.01,162.55 207.3,166.42 C 201.59,168.42 195.95,160.23 188.6,163.42 C 183.31,165.48 180.6,170.97 180.6,176.42 C 180.28,195.79 212.1,192.57 206.6,173.42 C 230.31,166.94 225.39,136.45 230.81,118.42 C 232.89,111.5 240.48,106.59 241.6,100.42 C 245.89,99.15 249.83,93.14 253.84,98.65 C 257.6,103.99 253.32,121.42 253.6,128.42 C 254.42,145.69 259.6,161.42 253,178.42 C 251.5,182.22 250.14,188.42 246.39,190.53 C 243.73,193.36 235.29,191.73 229.98,194.2 C 220.07,201.24 222.34,223.77 242.05,216.8 C 252.68,213.05 246.95,205.86 252.03,199.19 C 257.32,192.23 265.79,187.94 270.6,180.43 C 281.54,163.48 275.9,143.45 272.6,125.43 C 271.6,120.15 269.26,99.64 278.56,99.64 C 282.08,99.64 283.58,104.83 284.55,107.43 C 287.85,116.43 291.14,125.17 293.18,134.43 C 297.6,154.78 300.06,183.09 287.25,201.43 C 283.02,207.43 273.94,204.53 270.6,212.45 C 267.25,221.11 271.26,230.8 280.6,232.9 C 290.6,235.18 297.99,226.94 297.56,217.44 C 297.4,213.92 294.57,209.68 296.33,206.44 C 299.12,201.21 304.48,197.86 307.22,192.44 C 316.09,174.87 317.43,149.93 310.9,131.44 C 305.6,116.85 281.56,99.44 286.5,83.44 C 290.59,70.18 306.16,72.53 316.59,67.04 C 340.21,54.61 345.75,37.51 337.62,14.61 C 337.05,10.61 341.97,6.71 339.56,2.59 C 337.4,-1.1 332.59,-0.56 330.35,2.59 C 325.87,8.95 334.06,13.44 325.93,19.63 C 320.89,23.54 314.31,22.09 308.6,24.14 C 305.95,25.1 304.07,28.04 301.34,28.55 C 297.06,29.44 293.19,26.1 289.13,29.44 C 282.57,34.45 284.6,49.09 272.6,50.44 C 254.04,52.11 255.48,37.83 246.13,26.44 C 238.85,17.57 227.6,12.26 216.6,9.67 C 200.25,5.83 181.8,10.26 171.57,24.6 C 165.6,32.91 162.88,53.21 149.6,52.76 C 144.42,52.58 131.27,48.49 129.24,43.22 C 126.6,36.76 130.95,30.43 123.5,25.44 C 116.46,20.85 105.94,23.98 103.99,32.45 C 102.17,40.43 105.6,49.26 114.6,50.23 C 118.23,50.63 122.05,48.43 125.43,50.1 C 134.42,54.88 141.29,63.1 152.6,60.97 C 167.33,58.19 171.6,38.44 182.6,29.73 C 196.16,19.05 221.17,28.15 234.6,34.86 C 239.44,37.44 247.26,41.44 248.27,47.44 C 249.39,54.03 235.6,49.73 232.6,49.44 C 215.98,47.07 196.6,52.15 187.84,67.46 C 181.5,78.53 186.22,90.48 170.6,95.14 C 166.31,96.44 159.84,98.44 156.11,94.88 C 151.28,90.44 153.32,82.59 145.58,80.1 C 137.29,77.45 128.04,81.17 126.82,90.45 C 126.56,92.46 126.82,94.53 127.44,96.45 C 132.59,112.72 145.43,100.69 155.59,101.99 C 165.42,103.25 174.58,106.14 183.55,99.03 C 194.83,90.09 192.59,76.45 208.59,70.79 C 215.22,68.47 235.88,62.87 238.94,72.46 C 241.14,79.44 231.46,83.86 227.17,87.17 C 217.21,94.86 207.47,103.03 197.59,111.06 C 194.49,113.77 179.44,125.42 175.26,128.62 z M 293.62,62.42 C 303.5,61.42 315.35,49.75 318.05,40.42 C 319.24,36.42 317.1,30.42 319.5,26.76 C 322.21,22.7 334.16,17.06 337.39,22.5 C 347.96,40.42 325.51,62.59 309.61,64.55 C 304.62,65.16 295.62,69.25 293.62,62.42 z M 115.62,26.82 C 127.79,25.23 131,45.46 118.62,47.2 C 105.4,49.06 102.62,28.5 115.62,26.82 z M 286.62,43.42 C 286.28,46.47 287.62,52.55 292.07,48.99 C 293.9,47.51 284.92,38.42 290.22,33.03 C 293.24,30.03 298.02,32.76 301.62,32.25 C 305.07,31.76 308.62,27.67 312.3,29.09 C 316.91,30.89 314.35,40.48 312.62,43.51 C 308.12,51.55 296.9,62.99 286.62,61.14 C 275.36,59.09 279.57,47.65 286.62,43.42 z M 300.62,37.42 L 304.62,44.42 C 311.16,40.42 307.62,34.1 300.62,37.42 z M 291.62,48.07 C 291.26,48.43 289.7,49.27 289.05,49.02 C 288.4,48.77 287.5,41.74 287.5,41.74 C 287.5,41.74 291.98,47.71 291.62,48.07 z M 263.62,52.17 C 275.32,49.42 285.5,73.5 281.88,82.42 C 278.79,89.95 273.81,83.9 268.62,85.17 C 265.62,85.91 264.62,89.46 261.56,90.05 C 259.62,90.43 257.43,89.49 257.37,87.43 C 257.25,83.21 263.9,81.91 262.15,77.46 C 260.3,72.77 248.62,76.03 249.62,70.43 C 250.8,63.81 259.14,70.43 261.53,66.15 C 263.84,62.18 255.88,54.03 263.62,52.17 z M 137.62,83.76 C 150.48,81.42 155.8,99.93 141.62,102.19 C 129.33,104.16 124.89,86.15 137.62,83.76 z M 531.62,570.42 C 512.62,566.75 491.45,551.04 486.41,531.42 C 483.58,520.42 499.03,506.05 481.62,498.95 C 473.13,495.43 466.19,507.44 466.2,514.42 C 466.21,521.73 472.28,524.97 474.04,531.42 C 476.82,541.54 467.62,556.77 463.21,565.42 C 461.62,568.42 459.56,573.98 455.62,574.5 C 449.61,575.42 442.43,558.93 440.49,554.42 C 437.5,547.46 432.19,537.16 432.93,529.42 C 433.36,524.95 436.95,521.65 438.12,517.42 C 440.97,507.01 437.15,496.42 426.62,492.57 C 419.23,489.86 409.62,496.46 407.41,503.43 C 403.62,514.56 413.83,521.99 412.43,531.43 C 410.35,545.43 387.42,558.9 377.62,567.43 L 376.62,567.43 C 367.87,559.62 368.62,548.43 367.2,537.43 C 366.62,533.43 365.28,526.66 367.62,523.02 C 373.36,514.43 385.62,513.12 383.15,499.43 C 380.51,484.9 362.62,483 354.02,493.47 C 345.63,503.65 354.54,514.1 349.92,524.43 C 342.44,541.15 324.63,553.84 311.63,565.43 C 311.63,565.43 306.56,565.39 305.57,564.39 C 304.58,563.39 302.38,560.86 301.47,558.26 C 298.98,551.14 298.05,540.89 298.92,533.43 C 299.63,526.08 297.18,514.43 300.24,507.71 C 302.87,502.02 314.62,500.46 319.12,495.72 C 329.28,485.03 316.58,467.68 303.63,469.65 C 293.85,471.14 286.03,481.73 286.82,491.44 C 287.19,496 290.81,501.63 288.2,505.93 C 277.16,524.12 248.35,534.73 228.63,538.44 C 228.63,520.44 234.36,489.67 248.15,476.76 C 255.48,469.89 266.83,475.8 273.63,464.44 C 280.9,452.44 271.92,438.5 258.64,437.67 C 249.33,437.09 241.96,446.44 239.64,454.44 C 238.88,457.44 239.64,461.44 237.95,463.81 C 230.31,473.67 213.64,477.87 202.64,482.02 C 198.44,483.58 182.02,489.2 178.64,484.84 C 175.36,480.5 181.54,469.64 183.18,465.45 C 187.64,453.92 193.83,439.86 205.64,433.77 C 214.41,429.25 223.21,434.7 229.91,424.45 C 238.64,410.88 227.44,390.72 210.64,396.51 C 197.64,400.97 200.64,413.15 193.21,420.98 C 181.14,433.61 158.91,435.45 142.64,435.45 C 144.52,420.45 159.95,396.97 172.81,389.06 C 176.97,386.5 181.27,388.96 185.64,387.98 C 194.64,385.91 202.59,374.76 200.22,365.49 C 197.96,356.66 185.3,353.45 177.64,356.46 C 174.6,357.69 171.96,361.18 168.64,361.53 C 165.23,361.9 162.64,357.76 160.55,355.74 C 154.91,350.49 145.89,345.57 144.64,337.45 C 159.15,337.45 172.64,337.45 186.51,332.45 C 208.97,324.2 231.39,308.65 255.64,305.64 C 272.08,303.6 281.29,318.45 296.64,318.45 C 296.57,315.05 295.26,310.74 296.42,307.49 C 300.47,296.19 317.46,301.76 323.04,294.45 C 325.81,290.59 323.84,285.55 325.5,281.45 C 327.64,276.04 333.64,274.23 336.21,269.45 C 339.96,262.2 339.64,252.96 342.99,245.45 C 348.11,233.83 358.64,222.45 362.13,210.45 C 364.42,202.45 356.03,193.07 353.64,185.45 C 348.64,169.79 349.97,153.84 358.32,139.45 C 365.64,126.63 376.01,127.57 386.62,120.71 C 394.92,115.45 399.9,98.97 413.63,105.91 C 424.21,111.25 424.43,128.77 413.63,134.14 C 404.29,138.78 398.63,129.85 390.63,131.46 C 376.28,134.02 384.63,162.59 390.27,169.15 C 394.47,174.07 399.87,173.54 405.63,172.46 C 417.82,169.79 429.06,165.68 441.63,164.63 C 453.63,163.63 462.63,171.46 473.63,173.98 C 496.8,179.62 534.33,169.46 540.63,143.45 C 541.63,139.21 543.63,132.45 540.19,128.88 C 537.07,125.71 532.54,126.89 528.63,126.1 C 520.59,124.49 514.53,116.61 515.96,108.44 C 518.42,94.44 537.22,89.86 545.24,101.44 C 550.96,109.7 543.49,117.19 545.47,125.44 C 546.46,129.45 550.95,132.75 552.97,136.44 C 557.63,144.98 560.49,153.85 562.17,163.44 C 566.61,188.73 560,213.44 545.54,234.44 C 537.44,246.2 523.25,256.47 520.93,271.44 C 518.29,288.51 530.83,302.94 532.46,319.44 C 533.11,326.04 532,335.27 529.34,341.44 C 527.88,344.75 524.47,346.7 523.87,350.46 C 522.28,360.44 529.39,370 518.49,377.84 C 507.37,385.84 489.96,373.44 493.04,360.44 C 494.19,355.65 497.82,350.23 502.62,348.67 C 506.41,347.44 512.19,348.01 514.59,344.16 C 517.35,339.74 513.86,332.44 511.5,328.44 C 504.44,316.87 493.83,308.27 479.62,310.21 C 473.29,311.07 468.47,315.96 463.62,319.68 C 458.62,323.46 451.1,327.03 447.23,331.84 C 439.85,340.99 443.56,355.45 443.6,365.45 C 443.62,370.16 439.96,375.93 441.33,380.45 C 443.34,386.99 455.24,391.08 460.63,394.45 C 470.89,400.65 478.97,409.65 484.26,420.45 C 493.88,440.12 490.44,467.16 496.54,488.45 C 501.92,507.23 510.24,525.87 518.63,543.45 C 523.01,552.42 528.89,560.93 531.62,570.42 z M 197.62,118.16 C 202.62,116.68 204.19,125.46 199.48,126.67 C 194.15,128.04 192.54,119.67 197.62,118.16 z M 164.62,138.42 L 163.62,139.42 L 164.62,138.42 z M 168.62,139.91 C 178.23,138.1 176.44,149.79 167.62,151.12 C 157.95,152.59 161.57,141.24 168.62,139.91 z M 121.92,161.13 C 130.54,158.07 133.82,184.42 127.45,185.5 C 121.93,186.45 115.62,163.42 121.92,161.13 z M 116.62,195.42 C 108.62,194.08 102.98,174.7 106.36,167.7 C 110.31,159.54 115.33,172.04 115.62,175.42 C 115.97,178.09 116.46,180.73 116.58,183.42 C 116.62,187.42 116.62,191.43 116.62,195.42 z M 160.62,165.42 C 157.91,174.42 146.62,178.14 140.9,184.6 C 134.2,192 132.31,203.98 125.62,212.13 C 122.01,216.8 113.13,219.04 110.54,222.95 C 108.62,225.75 114.62,227.01 116.02,228.42 C 119.08,231.42 117.62,238.1 115.05,240.85 C 111.36,244.61 95.62,251.42 90.92,247.8 C 86.94,244.73 85.86,237.85 84.16,233.42 C 83.01,230.44 80.62,226.92 81.12,223.59 C 81.55,220.17 89.11,212.11 92.62,212.02 C 95.6,211.95 97.42,214.62 100.57,213.5 C 105.85,211.62 104.62,205.52 107.85,202.03 C 112.94,196.47 119,201.21 120.62,190.41 C 138.08,192.5 142.28,167.42 160.62,165.42 z M 189.62,166.85 C 203.62,162.8 211.2,181.61 197.58,185.75 C 185.35,189.47 177.36,170.42 189.62,166.85 z M 144.62,167.42 C 143.88,171.55 141.55,172.06 137.62,172.42 C 138.35,168.06 140.45,167.56 144.62,167.42 z M 94,175.17 C 97.19,174.25 98.86,178.08 99.58,180.42 C 101.04,185.17 106.89,204.54 100.4,207.16 C 97.2,208.45 95.01,204.82 94.03,202.42 C 92.14,197.78 86.51,177.42 94,175.17 z M 87.62,211.42 C 80.62,209.12 74.34,193.42 78.62,186.7 C 82.62,180.42 86.62,188.64 87.32,192.42 C 87.62,195.07 87.62,197.76 88.04,200.42 C 88.55,204.42 88.33,207.6 87.62,211.42 z M 479.62,227.42 C 479.62,227.42 473.4,223.3 466.18,221.36 C 460.61,219.86 454.34,220.42 450.62,220.42 C 451.36,214.6 454.82,207.21 452.62,201.42 C 445.54,181.15 409.23,194.42 397.62,201.21 C 369.5,217.78 350.61,252.98 355.21,285.43 C 355.85,289.91 354.62,293.96 356.35,298.43 C 364.14,318.43 391.37,316.47 408.62,314.6 C 446.93,310.42 491.25,267.61 479.62,227.42 z M 235.62,194.9 C 250.37,191.19 250.95,212.66 239.45,215.14 C 224.62,218.42 221.18,198.53 235.62,194.9 z M 409.62,238.42 L 398.62,249.42 C 409.03,247.63 422.47,241.45 427.05,231.42 C 431.62,221.07 422.12,203.42 410.62,202.42 C 413.24,211.85 432.27,229.42 414.62,235.42 C 414.62,223.05 412.62,209.78 397.62,209.42 C 402,194.86 439.61,189.64 448.88,201.76 C 453.58,207.9 444.26,216.97 450.06,221.78 C 458.39,228.69 474.61,219.98 479.05,235.42 C 482.89,248.78 473.38,263.42 465.89,273.42 C 446.48,299.57 400.37,326.78 367.62,306.42 C 359.46,301.17 357.62,290.42 357.62,281.42 C 357.59,262.02 362.55,248.71 372.91,232.42 C 376.3,227.09 381.62,214.94 388.56,213.59 C 391.62,212.96 393.02,219.41 393.93,221.41 C 397.23,229.16 401.13,235.9 409.62,238.42 z M 77.82,208.42 C 81.36,207.77 83.61,212.65 82.63,215.46 C 81.29,220.05 72.8,229.04 67.8,229.42 C 64.63,229.42 60.63,224.92 62.21,221.93 C 63.8,218.69 74.41,208.89 77.82,208.42 z M 279.62,209.02 C 292.83,203.87 299.86,223.78 288.53,228.52 C 274.98,234.2 267.3,213.86 279.62,209.02 z M 410.93,235.4 C 410.23,235.92 409.56,235.35 408.37,234.96 C 407.18,234.57 404.43,231.68 402.94,229.98 C 401.45,228.28 398.26,223.65 398.26,223.65 C 398.26,223.65 401.27,224.65 404.19,222.01 C 407.11,219.37 407.23,216.32 407.23,216.32 C 407.23,216.32 408.74,218.05 410.48,223.25 C 411.41,226.05 412.45,231.44 412.24,232.63 C 412.03,233.82 411.63,234.88 410.93,235.4 z M 397.22,213.11 C 399.33,211 400.51,211.85 401.64,212.25 C 402.77,212.65 405.49,214.24 405.49,214.24 C 405.49,214.24 403.09,213.9 400.32,216.4 C 397.55,218.9 397.41,221.07 397.41,221.07 C 397.41,221.07 396.18,218.42 396.01,217.04 C 395.77,215.14 395.1,215.23 397.22,213.11 z M 27.62,260.42 C 16.21,253.16 37.19,236.91 45.62,234.9 C 56.47,232.42 48.81,244.42 45.62,246.99 C 43.34,248.9 41,250.75 38.62,252.53 C 35.01,255.23 31.2,257.67 27.62,260.42 z M 438.62,244.42 L 453.62,252.46 L 465.62,261.42 C 464.87,247.67 450.98,240.77 438.62,244.42 z M 367.62,262.42 L 379.62,246.42 C 371.28,246.98 365.59,254.09 367.62,262.42 z M 104.62,248.75 C 120.24,246.15 114.51,270.46 113.45,280.42 C 111.62,296.14 110.62,311.64 109.53,327.42 C 109.16,332.87 106.62,339.08 107.12,344.42 C 107.83,353.42 115.13,352.77 118.01,358.73 C 120.61,364.15 118.2,373.8 117.19,379.42 C 115.51,388.73 110.27,414.22 99.52,417.1 C 94.9,418.42 89.96,416.09 85.61,414.85 C 74.59,411.71 56.61,409.54 54.93,395.42 C 53.89,387.07 57.28,376.75 58.48,368.42 C 62.48,340.62 70.87,313.42 78.47,286.42 C 82.62,271.53 86.57,251.75 104.62,248.75 z M 430.62,255.42 L 425.62,255.42 C 426.57,268.55 444.07,276.71 455.62,278.42 C 455.6,271.91 455.33,260.63 450.34,255.84 C 445.49,251.16 432.22,245.64 430.62,255.42 z M 416.62,287.42 L 409.62,298.42 C 427.44,295.64 420.62,279.48 415.62,268.42 C 410.62,273.19 415.17,277.04 416.62,282.42 C 406.9,280.95 397.06,270.44 390.62,263.42 C 388.37,260.81 385.62,254.06 381.62,254.06 C 370.34,254.06 372.37,276.76 377.12,282.2 C 385.46,291.75 405.62,289.46 416.62,287.42 z M 401.62,254.42 C 400.62,261.08 407.62,264.77 413.62,265.42 C 413.12,258.91 407.25,256.42 401.62,254.42 z M 381.62,258.42 L 404.62,284.42 C 391.92,284.42 370.79,274.42 381.62,258.42 z M 432.51,256.13 C 433.39,254.54 435.37,252.65 438.17,252.36 C 440.97,252.36 443.13,254.39 443.13,254.39 C 443.13,254.39 439.8,255.26 437.42,257.91 C 435.04,260.56 434.46,265.42 434.46,265.42 C 431.66,264.84 431.17,258.94 432.51,256.13 z M 443.6,263.93 C 446.34,261.26 446.29,257.13 446.29,257.13 C 446.29,257.13 449.38,259.39 450.86,263.52 C 452.37,267.73 453.69,272.64 452.21,274.12 C 450.73,275.6 445.61,273.2 442.42,271.73 C 439.81,270.53 436.65,267.32 436.65,267.32 C 436.65,267.32 441.02,266.44 443.6,263.93 z M 7.62,267.04 C 14.2,266.69 11.96,274.42 6.62,274.85 C 1.01,275.45 2.5,267.42 7.62,267.04 z M 362.36,334.45 C 360,336.68 364.07,339.6 365.62,340.54 C 369.88,342.93 379.62,347.42 383.96,342.68 C 387.99,338.25 365.43,331.55 362.36,334.45 z M 317.62,340.42 C 323.62,366.22 353.54,379.76 376.62,385.18 C 385.62,387.42 400.96,389.03 407.62,381.42 C 387.19,376.13 368.51,376.42 349.62,364.81 C 339.61,358.74 329.11,341.42 317.62,340.42 z M 153.57,385.34 C 139.07,442.75 114.43,489.81 79.08,519.99 C 67.34,530.02 54.98,534.42 39.62,534.42 C 36.45,534.42 27.62,535.94 26.28,532.11 C 24.54,527.55 58.45,499.63 69.03,488.42 C 91.86,463.74 108.27,435.53 119.62,404.42 C 125.62,388.23 131.57,371.92 131.62,354.42 C 135.56,354.43 155.13,365.29 153.57,385.34 z M 154.62,401.42 L 159.62,371.42 L 149.62,355.42 C 155.61,357.05 160.44,363.71 166.62,364.42 C 176.62,365.48 186.62,353.49 197.05,364.17 C 200,367.23 198.87,372.08 197.06,375.42 C 189.15,389.98 178.62,379.72 168.62,386.61 C 162.97,390.51 161.01,399.42 154.62,401.42 z M 30.62,507.42 C 25.04,505.65 42.19,451.71 45.6,442.59 C 48.27,435.43 52.62,423.13 58.24,417.78 C 61.26,414.87 68.26,415.83 69.01,420.48 C 70.06,426.97 62.35,435.51 60.06,441.42 C 52.8,460.12 47.33,478.05 42.5,497.42 C 41.11,502.91 36.2,509.19 30.62,507.42 z M 302.62,473.76 C 312.92,471.74 322.5,479.61 317.62,490.42 C 314.97,496.42 304,502.51 297.62,503.75 C 292.14,504.83 291.04,496.42 290.5,492.42 C 289.33,484.03 293.62,475.52 302.62,473.76 z M 313.62,625.42 C 311.62,618.42 321.27,604.05 324.4,597.42 C 335.2,574.53 347.62,551.22 356.33,527.42 C 359.26,519.42 350.62,510.5 353.41,501.42 C 355.83,493.14 366.27,487.42 374.33,491.71 C 382.59,496.23 381,506.41 375.41,512.41 C 371.44,516.56 365.04,517.89 361.62,522.6 C 355.61,530.85 352.11,542.16 347.86,551.41 C 336.59,575.92 326.62,601.84 313.62,625.42 z M 296.62,511.42 L 282.93,545.42 L 252.62,613.42 L 251.62,613.42 C 252.95,598.42 284.42,526.52 296.62,511.42 z M 296.62,524.42 C 296.62,524.42 272.25,603.49 258.62,612.42 L 283.2,555.42 L 296.62,524.42 z M 363.62,530.42 L 353.04,557.42 L 322.62,623.42 L 321.62,623.42 C 325.12,603.75 338.99,582.59 347.31,564.42 C 352.27,553.59 355.98,539.65 363.62,530.42 z M 346.62,537.42 L 305.62,627.42 L 304.62,627.42 C 303.62,620.05 310.6,610.02 313.87,603.42 C 321.38,588.42 327.99,572.65 335.36,557.42 C 338.62,550.67 340.8,542.42 346.62,537.42 z M 364.62,545.42 C 362.62,563.74 347.97,585.68 340.31,602.42 C 337.59,608.42 335.23,617.75 329.62,621.42 L 351.84,571.42 L 364.62,545.42 z M 296.62,547.42 L 279.04,588.42 L 266.62,614.42 C 265.62,606.74 272.3,596.2 275.62,589.42 C 282.62,575.91 288.62,561.46 294.62,547.42 L 296.62,547.42 z M 365.62,553.42 C 367.21,562.14 362.94,568.65 359.48,576.42 C 353.38,590.11 343.24,605.69 340.62,620.42 C 349.29,620.42 351.62,614.77 354.89,607.42 C 360.32,595.02 369.52,581.9 371.62,568.42 L 370.62,568.42 L 347.62,618.42 L 346.62,618.42 C 349.06,601.92 361.23,580.8 369.62,566.42 C 369.62,566.42 375.82,571.42 377.62,571.42 C 379.42,571.42 385.92,569.68 399.19,564.19 C 400.96,563.61 433.45,553.42 429.37,559.73 C 428.12,561.7 422.79,560.19 420.61,561.42 C 420.61,561.42 395,565.73 396.83,574.43 C 399.61,587.81 411.33,599.57 414.61,613.42 C 423.25,648.42 414.12,684.51 405.93,718.42 C 402.18,733.97 395.9,751.42 388.3,765.42 C 384.1,773.19 375.46,781.99 373.35,790.42 C 372.51,793.76 370.61,801.18 371.44,804.42 C 372.41,808.58 376.31,812.65 375.55,817.25 C 374.15,825.81 366.88,828.9 369.13,839.42 C 369.61,841.82 370.53,844.16 371.47,846.42 C 377.61,861.42 385.46,847.77 396.61,844 C 399.09,843.16 402.85,841.46 405.29,843.15 C 412.27,848.01 401.3,860.42 396.57,862.43 C 392.46,864.23 384.42,867.77 379.99,865.81 C 371.56,862.09 367.39,843.59 366.8,835.42 C 366.45,830.58 368.86,825.17 367.01,820.47 C 365.61,817.04 361.61,815.8 360.36,812.42 C 358.61,808.23 361.11,803.71 359.98,799.42 C 357.62,790.53 352.58,782.42 350.05,773.42 C 345,755.61 343.54,736.77 341.79,718.42 C 340.62,706.52 341.89,693.42 342.62,681.42 C 343.05,676.49 344.96,670.42 343.02,665.48 C 340.06,658.14 325.62,661.42 320.62,664.42 L 319.62,664.42 C 315.41,662.73 312.96,664.09 311.62,668.42 L 310.62,668.42 C 307.62,662.95 301.15,664.52 296.62,667.42 L 289.62,667.42 L 288.62,667.42 C 283.62,665.77 274.62,670.42 271.62,674.42 C 267.62,673.04 265.55,673.47 262.62,676.42 L 238.62,680.42 C 242.85,672.99 256,672.78 263.62,671.42 C 271.01,669.92 287.95,665.96 292.62,659.99 C 297.62,653.9 298.06,639.52 296.62,632.42 L 299.62,629.42 C 306.29,630.45 320.85,627.22 325.62,622.42 L 331.62,624.42 L 333.62,620.42 L 334.62,620.42 L 338.62,622.42 C 338.62,612.42 345.23,602.46 349.45,593.42 C 355.62,580.23 360.9,566.97 365.62,553.42 z M 330.62,554.42 L 319.49,580.42 L 296.62,630.42 L 295.62,630.42 L 317.2,581.42 L 330.62,554.42 z M 10.94,558.03 C 18.55,554.45 36.61,567.03 35.21,575.42 C 34.13,581.88 28.85,578.71 25.14,581.15 C 23.1,582.49 22.26,585.15 20.1,586.42 C 7.07,593.57 1.37,562.53 10.94,558.03 z M 297.62,558.42 C 296.88,572.62 285.21,589.61 279.17,602.42 C 276.94,607.16 275.22,613.64 270.62,616.42 C 275.62,598.68 286.51,573.11 297.62,558.42 z M 376.62,792.42 C 378.92,779.75 391.62,767.89 396.53,755.42 C 408.95,723.42 419.16,688.84 421.53,654.42 C 422.6,638.94 422.13,622.02 416.42,607.42 C 412.58,597.61 402.18,584.66 401.24,574.44 C 400.57,567.22 419.22,563.48 424.62,563.95 C 431.38,564.54 432.88,573.16 434.51,578.42 C 439.32,593.9 442.21,609.42 443.9,625.42 C 447.98,664.42 423.73,736.45 420.99,743.42 C 418.25,750.39 397.89,782.52 376.62,792.42 z M 433.62,563.42 C 452.98,590.64 453.5,639.77 448.19,671.42 C 446.23,683.08 444.54,694.93 441.62,706.42 C 440.84,710.15 437.62,717.45 439.26,721.13 C 441.25,725.67 446.62,719.42 447.98,717.42 C 453.87,709.42 456.98,699.42 461.37,690.42 C 476.1,660.54 486.17,626 487.61,592.42 L 488.61,592.42 C 488.61,638.59 470.48,688.83 445.83,727.42 C 436.49,742.04 427.11,757.21 412.61,767.42 C 433.43,729.5 453.6,653.4 445.47,610.84 C 443.12,598.49 433.62,563.42 433.62,563.42 z M 317.62,566.42 C 313.32,586.51 299.43,607.82 290.62,626.42 L 289.62,626.42 L 309.24,582.42 L 317.62,566.42 z M 385.62,566.42 L 385.62,567.42 L 382.62,567.42 L 385.62,566.42 z M 302.62,567.42 L 278.62,619.42 L 283.62,621.42 L 301.25,583.42 L 309.62,568.42 L 284.62,623.42 L 278.33,618.2 L 286.62,598.25 L 300.62,567.42 L 302.62,567.42 L 302.62,567.42 z M 395.61,583.48 C 387.62,584.54 372.61,611.15 385.62,610.23 C 393.87,609.65 400.22,604.71 401.41,596.42 C 401.98,592.48 401.91,582.63 395.61,583.48 z M 396.62,586.42 C 402.56,597.55 394.62,605.98 383.62,607.42 C 384.47,599.14 389.62,590.94 396.62,586.42 z M 296.62,638.42 L 296.62,639.42 C 292.45,644.19 294.17,655.05 290.02,658.42 C 277.1,668.79 253.92,668.42 238.62,673.95 C 222.06,680.09 208.53,694.64 190.62,697.42 C 196.41,686.42 218.88,686.58 221.87,673.46 C 223.3,667.17 212.08,668.22 208.62,668.59 C 192.37,670.42 177.23,676.5 160.62,673.42 L 160.62,672.42 L 215.62,660.42 C 212.11,649.42 203.25,653.1 194.58,653.42 C 183.6,653.61 168.1,653.52 157.62,650.42 L 157.62,649.42 C 169.27,644.47 183.22,645.42 195.62,645.42 C 199.61,645.42 208.96,646.5 211.62,642.84 C 215.42,637.96 202.92,636.55 200.62,635.83 C 187.5,631.71 172.42,629.42 158.62,629.42 C 160.57,623.87 166.81,626.02 171.62,625.67 C 185.58,624.63 198.03,628.42 211.62,629.42 C 216.13,629.66 227.91,631.12 228.58,624.42 C 228.97,620.55 224.25,617.94 221.62,616.08 C 215.62,611.93 207.2,607.11 206.62,599.42 L 241.62,616.42 L 275.62,624.42 L 296.62,638.42 z M 370.62,619.22 C 356.1,624.03 340.56,627.2 325.62,630.43 C 319.62,631.68 311.99,630.7 306.8,634.13 C 300.62,638.18 297.2,650.43 300.36,657.2 C 303.46,663.83 318.99,659.7 324.62,659.43 C 344.62,658.44 365.62,657.74 385.62,655.15 C 391.48,654.43 401.62,655.43 406.19,651 C 412.62,644.63 409.73,618.02 405.73,610.67 C 403.01,605.66 378.16,616.72 370.62,619.22 z M 400.57,613.07 C 404.29,613.42 405.26,617.42 405.53,620.42 C 406.1,626.91 408.86,643.91 403.19,648.56 C 398.24,652.62 387.6,650.75 381.53,651.54 C 362.98,653.96 343.36,654.95 324.62,655.43 C 318.92,655.58 310.33,658.46 304.94,655.81 C 297.45,652.12 306.62,638.24 311.62,636.5 C 329.91,630.1 350.86,629.54 369.62,623.53 C 378.49,620.7 391.18,612.42 400.57,613.07 z M 373.62,659.99 C 366.07,662.21 366.94,675.04 366.62,681.42 C 365.62,704.03 366.62,726.88 367.62,749.42 C 367.84,753.61 368.22,775.71 375.02,773.57 C 381.12,771.65 384.62,757.89 386.19,752.42 C 388.89,742.67 384.62,729.49 383.79,719.42 C 382.57,706.63 383.62,693.42 383.62,680.42 C 383.62,672.73 386.58,656.19 373.62,659.99 z M 375.62,770.42 C 370.62,767.42 371.56,755.93 370.91,750.42 C 368.44,729.58 369.62,708.42 369.62,687.42 C 369.62,682.42 368.48,665.81 373.92,663.42 C 384.62,658.43 379.46,683.81 380.04,688.42 C 381.55,700.42 379.88,712.45 380.62,724.42 C 381.22,731.82 384.88,740.06 384.06,747.42 C 383.15,755.59 377.18,762.54 375.62,770.42 z M 301.62,666.42 L 299.62,672.42 L 298.62,672.42 L 301.62,666.42 z M 308.62,666.42 L 307.62,671.42 L 306.62,671.42 L 308.62,666.42 z M 285.62,668.42 L 283.62,674.42 L 282.62,674.42 L 285.62,668.42 z M 292.62,668.42 L 289.62,677.42 L 288.62,677.42 L 292.62,668.42 z M 277.62,672.42 L 277.62,673.42 L 274.62,677.42 L 277.62,672.42 z M 267.62,675.42 L 262.62,687.42 L 261.62,687.42 L 267.62,675.42 z M 282.62,675.42 L 281.62,679.42 L 280.62,679.42 L 282.62,675.42 z M 258.62,678.42 L 254.62,688.42 L 253.62,688.42 L 258.62,678.42 z M 273.62,678.42 L 270.62,686.42 L 269.62,686.42 L 273.62,678.42 z M 250.62,679.42 L 247.62,687.42 L 246.62,687.42 L 248.62,679.42 L 250.62,679.42 z M 241.62,681.42 L 241.62,684.42 L 240.62,684.42 L 241.62,681.42 z M 232.62,685.42 L 228.62,696.42 L 227.62,696.42 L 232.62,685.42 z M 246.62,688.42 L 245.62,689.42 L 246.62,688.42 z M 223.62,689.42 L 217.62,703.42 L 216.62,703.42 L 223.62,689.42 z M 214.62,693.42 L 200.62,725.42 L 199.62,725.42 C 200.87,717.07 207.24,697.92 214.62,693.42 z M 378.62,851.42 C 372.62,846.05 366.62,817.85 381.62,820.5 C 385.4,821.16 401.8,834.92 399.44,838.77 C 398.07,841 392.88,841.42 390.62,842.42 C 385.85,844.42 382.01,847.55 378.62,851.42 z "
         transform="translate(-33.13,15.52)"
         id="path632" /></g></g><g
     transform="matrix(0.4,0,0,0.4,236.59,667.12)"
     id="lys"
     style="fill:#ffffff;fill-opacity:0.96470588;stroke:none;stroke-opacity:0.96470588"><path
       d="M 355.65,280.19 C 355.65,280.19 351.9,272.09 347.55,267.59 C 343.19,263.08 337.87,260.01 336.51,261.06"
       transform="translate(-1.35,-0.76)"
       style="fill:#ffffff;fill-opacity:0.96470588;fill-rule:evenodd;stroke:none;stroke-width:0.25pt;stroke-linecap:butt;stroke-linejoin:miter;stroke-opacity:0.96470588"
       id="lys_1" /><path
       d="M 368.97,258.94 C 366.68,259.02 363.07,260.86 361.12,262.81 C 358.53,265.41 357.6,270.39 357.53,272.25 C 357.46,274.11 356.21,271.41 355.34,269.88 C 354.48,268.34 353.41,264.48 353.12,266.66 C 352.84,268.86 352.78,269.92 353.19,272.38 C 353.59,274.83 354.78,279.53 355.75,281.06 L 359.72,285 C 361.59,283.12 362.82,278.75 362.91,278.75 L 362.84,288.09 L 367.19,292.41 C 366.03,290.04 365.25,285.83 365.56,282.03 C 365.88,278.23 367.86,273.44 367.62,271.59 C 366.48,271.19 364.72,274.17 362.41,273.47 C 362.33,271.72 363.15,267.45 364.31,265.78 C 365.48,264.12 368.74,260.08 370.72,259.5 C 370.36,259.08 369.73,258.91 368.97,258.94 z "
       style="fill:#ffffff;fill-opacity:0.96470588;fill-rule:evenodd;stroke:none;stroke-width:0.25pt;stroke-linecap:butt;stroke-linejoin:miter;stroke-opacity:0.96470588"
       id="lys_2" /><path
       d="M 329.36,254.28 C 338.98,249.33 349,262.58 349,262.58 C 349,262.58 350.44,253.33 352.32,253.22 C 354.2,253.11 357.19,260.53 357.19,260.53 C 357.19,260.53 362.95,252.89 372.91,252.95 C 382.88,253 384.48,262.08 378.78,262.52 C 373.12,262.96 376.4,257.37 376.51,258.87 C 376.57,259.04 371.14,251.12 357.36,266.73 C 355.33,269.03 353.42,258.27 352.43,260.64 C 351.22,263.52 352.21,266.9 351.32,269.17 C 352.71,270.88 339.97,255.33 334.55,259.59"
       transform="translate(-1.35,-0.76)"
       style="fill:#ffffff;fill-opacity:0.96470588;fill-rule:evenodd;stroke:none;stroke-width:0.25pt;stroke-linecap:butt;stroke-linejoin:miter;stroke-opacity:0.96470588"
       id="lys_3" /><use
       transform="matrix(0,1,1,0,74.5,-74.49)"
       xlink:href="#lys_3"
       style="fill:#ffffff;fill-opacity:0.96470588;stroke:none;stroke-opacity:0.96470588"
       id="use646"
       x="0"
       y="0"
       width="2178.99"
       height="1216.1899" /><use
       transform="matrix(0,1,1,0,74.9,-74.93)"
       xlink:href="#lys_1"
       style="fill:#ffffff;fill-opacity:0.96470588;stroke:none;stroke-opacity:0.96470588"
       id="use648"
       x="0"
       y="0"
       width="2178.99"
       height="1216.1899" /><use
       transform="matrix(0,1,1,0,74.82,-74.82)"
       xlink:href="#lys_2"
       style="fill:#ffffff;fill-opacity:0.96470588;stroke:none;stroke-opacity:0.96470588"
       id="use650"
       x="0"
       y="0"
       width="2178.99"
       height="1216.1899" /></g></defs><sodipodi:namedview
   inkscape:window-height="968"
   inkscape:window-width="1280"
   inkscape:pageshadow="2"
   inkscape:pageopacity="0.0"
   borderopacity="1.0"
   bordercolor="#666666"
   pagecolor="#ffffff"
   id="base"
   inkscape:zoom="1.2296662"
   inkscape:cx="43.071901"
   inkscape:cy="43.265093"
   inkscape:window-x="-4"
   inkscape:window-y="-4"
   inkscape:current-layer="svg3109" />
	<path
   id="path3112"
   d="M 166.83643,235.54639 C 166.83643,239.32373 163.75049,242.41748 159.96729,242.41748 L 7.1113281,242.41748 C 3.336914,242.41748 0.25,239.32373 0.25,235.54639 L 0.25,7.1191406 C 0.25,3.3417969 3.3369141,0.25 7.1113281,0.25 L 159.96729,0.25 C 163.75049,0.25 166.83643,3.3417969 166.83643,7.1191406 L 166.83643,235.54639 L 166.83643,235.54639 z "
   style="fill:#ffffff;fill-rule:nonzero;stroke:#000000;stroke-width:0.5;stroke-miterlimit:4" /><g
   id="g3126"
   style="fill:#000000;fill-rule:nonzero;stroke:none;stroke-miterlimit:4;fill-opacity:1">
			<path
   id="path3128"
   d="M 156.22314,212.02686 L 156.22314,214.87061 L 155.53564,214.87061 C 155.51807,214.11865 155.44189,213.56396 155.30518,213.2124 C 155.16846,212.85889 154.96143,212.68311 154.68799,212.68311 C 154.34033,212.68311 154.09814,212.98193 153.95947,213.58154 C 153.82275,214.1792 153.75439,215.30225 153.75439,216.94873 L 153.75439,232.93311 L 154.94189,232.93311 L 154.94189,234.40186 L 150.62939,234.40186 L 150.62939,232.93311 L 151.66064,232.93311 L 151.66064,216.85303 C 151.66064,214.896 151.87939,213.46826 152.31885,212.56592 C 152.75635,211.66553 153.45947,211.21436 154.42432,211.21436 C 154.72314,211.21436 155.02002,211.28271 155.31689,211.41748 C 155.61572,211.5542 155.9165,211.75732 156.22314,212.02686 z "
   style="fill:#000000;fill-opacity:1" />
			<path
   id="path3130"
   d="M 145.40869,216.02686 C 146.76221,216.02686 147.82471,216.85693 148.59229,218.51709 C 149.36182,220.17529 149.74658,222.46436 149.74658,225.38037 C 149.74658,228.29639 149.36182,230.58545 148.59229,232.24951 C 147.82471,233.91357 146.76221,234.74561 145.40869,234.74561 C 144.04736,234.74561 142.98291,233.91553 142.21338,232.25537 C 141.44385,230.59717 141.05908,228.3042 141.05908,225.38037 C 141.05908,222.46436 141.4458,220.17529 142.21924,218.51709 C 142.99268,216.85693 144.05518,216.02686 145.40869,216.02686 L 145.40869,216.02686 z M 145.40869,217.49561 C 144.71729,217.49561 144.20557,218.14404 143.87158,219.43896 C 143.53955,220.73584 143.37158,222.71631 143.37158,225.38037 C 143.37158,228.05225 143.53955,230.03662 143.87158,231.3335 C 144.20557,232.62842 144.71729,233.27686 145.40869,233.27686 C 146.09229,233.27686 146.6001,232.62256 146.93408,231.31397 C 147.26807,230.00732 147.43408,228.02881 147.43408,225.38037 C 147.43408,222.73975 147.26807,220.76514 146.93408,219.4585 C 146.6001,218.1499 146.09229,217.49561 145.40869,217.49561 L 145.40869,217.49561 z "
   style="fill:#000000;fill-opacity:1" />
			<path
   id="path3132"
   d="M 140.06299,216.37061 L 140.06299,217.83936 L 139.03174,217.83936 L 139.03174,232.93311 L 140.06299,232.93311 L 140.06299,234.40186 L 135.93799,234.40186 L 135.93799,232.93311 L 136.96924,232.93311 L 136.96924,226.35693 L 133.55713,232.93311 L 134.4165,232.93311 L 134.4165,234.40186 L 131.41846,234.40186 L 131.41846,232.93311 L 132.49463,232.93311 L 135.3833,227.37061 L 131.44385,217.83936 L 130.65674,217.83936 L 130.65674,216.37061 L 133.38525,216.37061 L 136.96924,225.12646 L 136.96924,217.83936 L 135.93799,217.83936 L 135.93799,216.37061 L 140.06299,216.37061 z "
   style="fill:#000000;fill-opacity:1" />
			<path
   id="path3134"
   d="M 130.46338,216.37061 L 130.46338,217.83936 L 129.43213,217.83936 L 129.43213,232.93311 L 130.46338,232.93311 L 130.46338,234.40186 L 123.24463,234.40186 L 123.24463,230.15186 L 123.99463,230.15186 L 123.99463,232.74561 L 127.36963,232.74561 L 127.36963,226.96436 L 125.27588,226.96436 L 125.27588,229.24561 L 124.52588,229.24561 L 124.52588,223.02686 L 125.27588,223.02686 L 125.27588,225.30811 L 127.36963,225.30811 L 127.36963,218.02686 L 123.90088,218.02686 L 123.90088,220.62061 L 123.15088,220.62061 L 123.15088,216.37061 L 130.46338,216.37061 z "
   style="fill:#000000;fill-opacity:1" />
			<path
   id="path3136"
   d="M 116.67627,225.16357 C 116.36377,225.06006 116.09814,224.82373 115.87744,224.45459 C 115.65869,224.08545 115.46729,223.55225 115.30713,222.85498 L 114.14111,217.83936 L 113.30713,217.83936 L 113.30713,216.37061 L 115.95557,216.37061 L 117.24854,221.81787 C 117.50244,222.94287 117.71533,223.65967 117.89111,223.96826 C 118.06494,224.27881 118.30713,224.43311 118.61572,224.43311 L 118.95166,224.43311 L 118.95166,217.83936 L 117.92041,217.83936 L 117.92041,216.37061 L 122.04541,216.37061 L 122.04541,217.83936 L 121.01416,217.83936 L 121.01416,232.93311 L 122.04541,232.93311 L 122.04541,234.40186 L 117.44775,234.40186 C 116.51025,234.40186 115.7876,233.97998 115.27783,233.13818 C 114.77002,232.29639 114.51416,231.10107 114.51416,229.5542 C 114.51416,228.29639 114.6958,227.30225 115.05518,226.57373 C 115.4165,225.84326 115.95557,225.37451 116.67627,225.16357 L 116.67627,225.16357 z M 118.95166,225.87061 L 118.24463,225.87061 C 117.73486,225.87061 117.34033,226.17725 117.05908,226.79053 C 116.77979,227.40186 116.63916,228.27686 116.63916,229.41357 C 116.63916,230.55029 116.77979,231.42139 117.05908,232.02686 C 117.34033,232.63037 117.73486,232.93311 118.24463,232.93311 L 118.95166,232.93311 L 118.95166,225.87061 L 118.95166,225.87061 z "
   style="fill:#000000;fill-opacity:1" />
		</g><g
   id="g3114"
   style="fill:#000000;fill-rule:nonzero;stroke:none;stroke-miterlimit:4;fill-opacity:1">
			<path
   id="path3116"
   d="M 10.325195,30.132813 L 10.325195,27.289063 L 11.012695,27.289063 C 11.029297,28.041992 11.105469,28.595703 11.242188,28.947266 C 11.379883,29.300781 11.585938,29.476563 11.861328,29.476563 C 12.208008,29.476563 12.450195,29.177734 12.587891,28.579102 C 12.724609,27.980469 12.793945,26.857422 12.793945,25.210938 L 12.793945,9.2265625 L 11.606445,9.2265625 L 11.606445,7.7578125 L 15.918945,7.7578125 L 15.918945,9.2265625 L 14.887695,9.2265625 L 14.887695,25.307617 C 14.887695,27.263672 14.667969,28.691406 14.230469,29.59375 C 13.791016,30.494141 13.089844,30.945313 12.123047,30.945313 C 11.826172,30.945313 11.52832,30.876953 11.230469,30.742188 C 10.932617,30.606445 10.630859,30.40332 10.325195,30.132813 L 10.325195,30.132813 z "
   style="fill:#000000;fill-opacity:1" />
			<path
   id="path3118"
   d="M 21.138672,26.132813 C 19.785156,26.132813 18.723633,25.302734 17.955078,23.643555 C 17.185547,21.984375 16.800781,19.696289 16.800781,16.779297 C 16.800781,13.863281 17.185547,11.574219 17.955078,9.9101563 C 18.723633,8.2460938 19.785156,7.4140625 21.138672,7.4140625 C 22.5,7.4140625 23.56543,8.2441406 24.334961,9.9042969 C 25.103516,11.563477 25.488281,13.855469 25.488281,16.779297 C 25.488281,19.696289 25.101563,21.984375 24.328125,23.643555 C 23.554688,25.302734 22.492188,26.132813 21.138672,26.132813 z M 21.138672,24.664063 C 21.830078,24.664063 22.341797,24.015625 22.675781,22.720703 C 23.008789,21.423828 23.175781,19.443359 23.175781,16.779297 C 23.175781,14.107422 23.008789,12.123047 22.675781,10.827148 C 22.341797,9.53125 21.830078,8.8828125 21.138672,8.8828125 C 20.455078,8.8828125 19.947266,9.5371094 19.613281,10.845703 C 19.280273,12.15332 19.113281,14.130859 19.113281,16.779297 C 19.113281,19.419922 19.280273,21.394531 19.613281,22.702149 C 19.947266,24.009766 20.455078,24.664063 21.138672,24.664063 L 21.138672,24.664063 z "
   style="fill:#000000;fill-opacity:1" />
			<path
   id="path3120"
   d="M 26.484375,25.789063 L 26.484375,24.320313 L 27.515625,24.320313 L 27.515625,9.2265625 L 26.484375,9.2265625 L 26.484375,7.7578125 L 30.609375,7.7578125 L 30.609375,9.2265625 L 29.578125,9.2265625 L 29.578125,15.802734 L 32.990234,9.2265625 L 32.131836,9.2265625 L 32.131836,7.7578125 L 35.128906,7.7578125 L 35.128906,9.2265625 L 34.053711,9.2265625 L 31.165039,14.789063 L 35.104492,24.320313 L 35.890625,24.320313 L 35.890625,25.789063 L 33.163086,25.789063 L 29.578125,17.033203 L 29.578125,24.320313 L 30.609375,24.320313 L 30.609375,25.789063 L 26.484375,25.789063 z "
   style="fill:#000000;fill-opacity:1" />
			<path
   id="path3122"
   d="M 36.083984,25.789063 L 36.083984,24.320313 L 37.115234,24.320313 L 37.115234,9.2265625 L 36.083984,9.2265625 L 36.083984,7.7578125 L 43.302734,7.7578125 L 43.302734,12.007813 L 42.552734,12.007813 L 42.552734,9.4140625 L 39.177734,9.4140625 L 39.177734,15.195313 L 41.271484,15.195313 L 41.271484,12.914063 L 42.021484,12.914063 L 42.021484,19.132813 L 41.271484,19.132813 L 41.271484,16.851563 L 39.177734,16.851563 L 39.177734,24.132813 L 42.646484,24.132813 L 42.646484,21.539063 L 43.396484,21.539063 L 43.396484,25.789063 L 36.083984,25.789063 z "
   style="fill:#000000;fill-opacity:1" />
			<path
   id="path3124"
   d="M 49.871094,16.996094 C 50.183594,17.099609 50.449219,17.335938 50.669922,17.705078 C 50.889649,18.074219 51.080078,18.607422 51.240234,19.305664 L 52.407227,24.320312 L 53.241211,24.320312 L 53.241211,25.789062 L 50.591797,25.789062 L 49.298828,20.341797 C 49.045898,19.216797 48.832031,18.5 48.657227,18.191406 C 48.482422,17.880859 48.240234,17.726562 47.931641,17.726562 L 47.595703,17.726562 L 47.595703,24.320312 L 48.626953,24.320312 L 48.626953,25.789062 L 44.501953,25.789062 L 44.501953,24.320312 L 45.533203,24.320312 L 45.533203,9.2265625 L 44.501953,9.2265625 L 44.501953,7.7578125 L 49.099609,7.7578125 C 50.037109,7.7578125 50.759766,8.1796875 51.269531,9.0214844 C 51.77832,9.8632813 52.033203,11.058594 52.033203,12.606445 C 52.033203,13.864258 51.852539,14.857422 51.492188,15.586914 C 51.131836,16.316406 50.591797,16.786133 49.871094,16.996094 L 49.871094,16.996094 z M 47.595703,16.289063 L 48.302734,16.289063 C 48.813477,16.289063 49.208008,15.982422 49.488281,15.370117 C 49.767578,14.757813 49.908203,13.882813 49.908203,12.746094 C 49.908203,11.609375 49.767578,10.738281 49.488281,10.133789 C 49.208008,9.5292969 48.813477,9.2265625 48.302734,9.2265625 L 47.595703,9.2265625 L 47.595703,16.289063 z "
   style="fill:#000000;fill-opacity:1" />
		</g><g
   id="g2465"
   transform="translate(181.6941,-10.0965)"><use
     height="1216.1899"
     width="2178.99"
     y="0"
     x="0"
     id="use3232"
     transform="matrix(0.193672,0,0,0.194435,244.226,182.3975)"
     xlink:href="#joker" /><use
     height="1216.1899"
     width="2178.99"
     y="0"
     x="0"
     id="use3234"
     transform="matrix(0.868182,0.39749,0.395929,-0.871604,-133.1696,182.0805)"
     xlink:href="#heart" /><use
     height="1216.1899"
     width="2178.99"
     y="0"
     x="0"
     id="use3236"
     transform="matrix(0.918222,-0.242445,-0.236195,-0.942519,-121.9945,201.0505)"
     xlink:href="#diamond" /><use
     height="1216.1899"
     width="2178.99"
     y="0"
     x="0"
     id="use3238"
     transform="matrix(0.83479,0.464536,0.462712,-0.838081,-100.0605,202.9598)"
     xlink:href="#club" /><use
     height="1216.1899"
     width="2178.99"
     y="0"
     x="0"
     id="use3240"
     transform="matrix(0.916838,-0.265313,-0.264271,-0.920452,-123.2771,157.8279)"
     xlink:href="#spade" /></g>
<use
   style="fill:none;stroke:none;stroke-width:1.01162648;stroke-miterlimit:4;stroke-dasharray:none;stroke-opacity:1"
   transform="matrix(0.96455,0,0,0.974491,-177.6008,-705.4157)"
   height="1216.1899"
   width="2178.99"
   id="use3224"
   y="972.54999"
   x="0"
   xlink:href="#base" /></svg>